<?xml version="1.0" encoding="UTF-8"?>
<!DOCTYPE svg PUBLIC "-//W3C//DTD SVG 1.1//EN" "http://www.w3.org/Graphics/SVG/1.1/DTD/svg11.dtd">
<!-- Creator: CorelDRAW 2018 (64-Bit Evaluation Version) -->
<svg xmlns="http://www.w3.org/2000/svg" xml:space="preserve" width="64px" height="64px" version="1.1" style="shape-rendering:geometricPrecision; text-rendering:geometricPrecision; image-rendering:optimizeQuality; fill-rule:evenodd; clip-rule:evenodd"
viewBox="0 0 64 64"
 xmlns:xlink="http://www.w3.org/1999/xlink">
 <defs>
  <style type="text/css">
   <![CDATA[
    .fil0 {fill:none}
    .fil3 {fill:#3468D0}
    .fil5 {fill:#EFB80A}
    .fil4 {fill:#FEFEFE}
    .fil6 {fill:white}
    .fil1 {fill:url(#id0)}
    .fil2 {fill:url(#id1)}
   ]]>
  </style>
  <linearGradient id="id0" gradientUnits="userSpaceOnUse" x1="16.858" y1="53.81" x2="30.744" y2="9.045">
   <stop offset="0" style="stop-opacity:1; stop-color:#FE6E98"/>
   <stop offset="1" style="stop-opacity:1; stop-color:#FE8366"/>
  </linearGradient>
  <linearGradient id="id1" gradientUnits="userSpaceOnUse" xlink:href="#id0" x1="51.593" y1="17.496" x2="42.905" y2="53.261">
  </linearGradient>
 </defs>
 <g id="Layer_x0020_1">
  <metadata id="CorelCorpID_0Corel-Layer"/>
  <g id="_2134049160560">
   <rect class="fil0" x="-0.001" y="-0.001" width="64.002" height="64.002"/>
   <g>
    <path class="fil1" d="M32.176 55.723l-8.104 0 -0.053 0c-6.522,0 -12.448,-2.666 -16.741,-6.959 -4.294,-4.294 -6.959,-10.22 -6.959,-16.741 0,-6.522 2.665,-12.449 6.959,-16.742 4.293,-4.294 10.219,-6.959 16.741,-6.959l0.053 0 3.513 0 -0.056 -3.258 9.34 7.416 -9.09 7.217 -0.055 -3.202 -3.652 0 -0.053 0c-4.265,0 -8.146,1.748 -10.963,4.564 -2.816,2.816 -4.564,6.698 -4.564,10.963 0,4.266 1.748,8.147 4.564,10.963 2.817,2.817 6.698,4.565 10.963,4.565l0.053 0 7.81 0 -4.999 3.97 5.293 4.203z"/>
    <path class="fil2" d="M39.928 16.495l-7.111 0 5.055 -4.015 -5.237 -4.158 7.293 0 0.053 0c6.522,0 12.448,2.665 16.741,6.959 4.294,4.293 6.959,10.22 6.959,16.742 0,6.521 -2.665,12.447 -6.959,16.741 -4.293,4.293 -10.219,6.959 -16.741,6.959l-0.053 0 -2.757 0 0.054 3.212 -9.338 -7.415 9.089 -7.218 0.056 3.248 2.896 0 0.053 0c4.265,0 8.146,-1.748 10.963,-4.565 2.816,-2.816 4.564,-6.697 4.564,-10.963 0,-4.265 -1.748,-8.147 -4.564,-10.963 -2.817,-2.816 -6.698,-4.564 -10.963,-4.564l-0.053 0z"/>
   </g>
   <g>
    <path class="fil3" d="M21.687 38.737c-0.171,-0.531 0.61,-0.747 0.759,-0.257 0.166,0.546 -0.621,0.687 -0.759,0.257zm3.616 -0.385c-0.101,-0.477 0.557,-0.557 0.643,-0.18 0.112,0.484 -0.562,0.567 -0.643,0.18zm-7.121 0c-0.098,-0.464 0.555,-0.563 0.644,-0.179 0.111,0.481 -0.563,0.567 -0.644,0.179zm5.975 -1.578c-0.099,-0.692 0.926,-0.768 0.992,-0.151 0.031,0.299 -0.178,0.536 -0.436,0.564 -0.281,0.03 -0.521,-0.174 -0.556,-0.413zm-4.202 0.077c-0.23,0.624 -1.147,0.312 -0.948,-0.326 0.194,-0.626 1.176,-0.293 0.948,0.326zm1.515 -0.578c-0.103,-0.815 1.093,-0.903 1.191,-0.176 0.111,0.821 -1.1,0.899 -1.191,0.176zm5.791 -0.769c-0.156,-0.569 0.639,-0.702 0.762,-0.257 0.154,0.561 -0.642,0.702 -0.762,0.257zm-11.153 0c-0.162,-0.552 0.627,-0.712 0.76,-0.261 0.17,0.574 -0.631,0.698 -0.76,0.261zm8.857 -1.232c-0.123,-0.839 1.103,-0.933 1.19,-0.192 0.098,0.824 -1.081,0.93 -1.19,0.192zm-0.761 0.077c-0.085,0.491 -0.536,0.913 -1.135,0.812 -0.474,-0.08 -0.889,-0.56 -0.783,-1.136 0.232,-1.261 2.13,-0.894 1.918,0.324zm-4.285 -0.077c-0.069,-1.311 1.846,-1.372 1.941,-0.148 0.041,0.548 -0.37,0.999 -0.87,1.047 -0.568,0.055 -1.043,-0.388 -1.071,-0.899zm-0.771 0.077c-0.255,0.768 -1.381,0.394 -1.148,-0.369 0.215,-0.703 1.408,-0.414 1.148,0.369zm-0.411 -1.925c-0.311,-1.271 1.612,-1.701 1.893,-0.45 0.132,0.584 -0.285,1.069 -0.735,1.165 -0.584,0.124 -1.053,-0.282 -1.158,-0.715zm6.658 0c-0.124,0.448 -0.589,0.857 -1.188,0.708 -1.221,-0.306 -0.771,-2.233 0.498,-1.884 0.429,0.118 0.852,0.591 0.69,1.176zm3.646 -0.586c0.403,-0.113 0.59,0.493 0.188,0.631 -0.416,0.143 -0.664,-0.498 -0.188,-0.631zm-14.115 0.005c0.428,-0.159 0.593,0.529 0.185,0.633 -0.4,0.101 -0.649,-0.459 -0.185,-0.633zm12.243 -0.213c0.659,-0.145 0.848,0.872 0.201,0.983 -0.665,0.115 -0.803,-0.85 -0.201,-0.983zm-10.442 0.016c0.655,-0.196 0.835,0.76 0.31,0.946 -0.649,0.232 -0.981,-0.744 -0.31,-0.946zm8.684 -2.085c0.776,-0.212 1.056,0.983 0.301,1.162 -0.784,0.186 -1.071,-0.951 -0.301,-1.162zm-6.994 0.006c0.781,-0.211 1.042,0.934 0.357,1.144 -0.811,0.25 -1.133,-0.935 -0.357,-1.144zm4.545 -0.384c1.261,-0.382 1.76,1.509 0.566,1.854 -1.257,0.364 -1.787,-1.484 -0.566,-1.854zm-2.35 -0.001c1.256,-0.373 1.755,1.499 0.567,1.855 -1.275,0.383 -1.76,-1.501 -0.567,-1.855zm6.886 -0.616c0.485,-0.206 0.785,0.556 0.295,0.736 -0.5,0.183 -0.8,-0.521 -0.295,-0.736zm-11.155 0.005c0.488,-0.236 0.79,0.56 0.294,0.734 -0.48,0.169 -0.804,-0.488 -0.294,-0.734zm5.514 -0.995c0.772,-0.308 1.131,0.838 0.433,1.109 -0.512,0.198 -1.007,-0.317 -0.758,-0.834 0.095,-0.196 0.124,-0.194 0.325,-0.275zm2.677 -0.435c0.62,-0.178 0.888,0.805 0.252,0.963 -0.655,0.162 -0.901,-0.777 -0.252,-0.963zm-5.164 -0.005c0.642,-0.159 0.819,0.817 0.258,0.967 -0.676,0.18 -0.921,-0.804 -0.258,-0.967zm6.1 -1.367c0.399,-0.24 0.696,0.371 0.32,0.566 -0.174,0.09 -0.381,0.019 -0.451,-0.109 -0.115,-0.213 -0.034,-0.358 0.131,-0.457zm-7.122 -0.001c0.421,-0.249 0.663,0.407 0.325,0.57 -0.382,0.182 -0.728,-0.329 -0.325,-0.57zm3.587 -0.423c0.502,-0.207 0.712,0.557 0.288,0.733 -0.456,0.19 -0.841,-0.507 -0.288,-0.733zm-9.798 6.1l0 1.42c0.155,0.352 0.049,2.567 1.859,5.052 0.504,0.693 1.004,1.23 1.647,1.778 2.684,2.286 5.416,2.175 5.766,2.313l1.16 0c0.135,-0.053 0.794,-0.093 1.023,-0.132 4.206,-0.725 7.372,-3.881 8.112,-8.085 0.042,-0.235 0.085,-0.92 0.139,-1.056l0 -1.159c-0.117,-0.296 0.018,-1.518 -0.956,-3.664 -0.36,-0.795 -1.23,-2.076 -1.893,-2.685 -0.514,-0.473 -0.581,-0.585 -1.243,-1.065 -2.505,-1.817 -4.695,-1.702 -5.051,-1.86l-1.421 0c-0.416,0.185 -3.407,0.039 -6.255,2.888 -2.849,2.851 -2.706,5.849 -2.887,6.255z"/>
    <path class="fil4" d="M22.962 29.183c-1.221,0.37 -0.691,2.218 0.566,1.854 1.194,-0.345 0.695,-2.236 -0.566,-1.854z"/>
    <path class="fil4" d="M25.395 32.424c0.162,-0.585 -0.261,-1.058 -0.69,-1.176 -1.269,-0.349 -1.719,1.578 -0.498,1.884 0.599,0.149 1.064,-0.26 1.188,-0.708z"/>
    <path class="fil4" d="M20.612 29.182c-1.193,0.354 -0.708,2.238 0.567,1.855 1.188,-0.356 0.689,-2.228 -0.567,-1.855z"/>
    <path class="fil4" d="M24.204 34.349c0.212,-1.218 -1.686,-1.585 -1.918,-0.324 -0.106,0.576 0.309,1.056 0.783,1.136 0.599,0.101 1.05,-0.321 1.135,-0.812z"/>
    <path class="fil4" d="M18.737 32.424c0.105,0.433 0.574,0.839 1.158,0.715 0.45,-0.096 0.867,-0.581 0.735,-1.165 -0.281,-1.251 -2.204,-0.821 -1.893,0.45z"/>
    <path class="fil4" d="M19.919 34.272c0.028,0.511 0.503,0.954 1.071,0.899 0.5,-0.048 0.911,-0.499 0.87,-1.047 -0.095,-1.224 -2.01,-1.163 -1.941,0.148z"/>
    <path class="fil4" d="M25.411 29.561c-0.77,0.211 -0.483,1.348 0.301,1.162 0.755,-0.179 0.475,-1.374 -0.301,-1.162z"/>
    <path class="fil4" d="M24.965 34.272c0.109,0.738 1.288,0.632 1.19,-0.192 -0.087,-0.741 -1.313,-0.647 -1.19,0.192z"/>
    <path class="fil4" d="M19.148 34.349c0.26,-0.783 -0.933,-1.072 -1.148,-0.369 -0.233,0.763 0.893,1.137 1.148,0.369z"/>
    <path class="fil4" d="M18.417 29.567c-0.776,0.209 -0.454,1.394 0.357,1.144 0.685,-0.21 0.424,-1.355 -0.357,-1.144z"/>
    <path class="fil4" d="M21.857 27.576c-0.201,0.081 -0.23,0.079 -0.325,0.275 -0.249,0.517 0.246,1.032 0.758,0.834 0.698,-0.271 0.339,-1.417 -0.433,-1.109z"/>
    <path class="fil4" d="M21.47 36.273c0.091,0.723 1.302,0.645 1.191,-0.176 -0.098,-0.727 -1.294,-0.639 -1.191,0.176z"/>
    <path class="fil4" d="M19.955 36.851c0.228,-0.619 -0.754,-0.952 -0.948,-0.326 -0.199,0.638 0.718,0.95 0.948,0.326z"/>
    <path class="fil4" d="M24.534 27.141c-0.649,0.186 -0.403,1.125 0.252,0.963 0.636,-0.158 0.368,-1.141 -0.252,-0.963z"/>
    <path class="fil4" d="M27.169 31.63c-0.602,0.133 -0.464,1.098 0.201,0.983 0.647,-0.111 0.458,-1.128 -0.201,-0.983z"/>
    <path class="fil4" d="M19.37 27.136c-0.663,0.163 -0.418,1.147 0.258,0.967 0.561,-0.15 0.384,-1.126 -0.258,-0.967z"/>
    <path class="fil4" d="M16.727 31.646c-0.671,0.202 -0.339,1.178 0.31,0.946 0.525,-0.186 0.345,-1.142 -0.31,-0.946z"/>
    <path class="fil4" d="M24.157 36.774c0.035,0.239 0.275,0.443 0.556,0.413 0.258,-0.028 0.467,-0.265 0.436,-0.564 -0.066,-0.617 -1.091,-0.541 -0.992,0.151z"/>
    <path class="fil4" d="M16.343 28.571c-0.51,0.246 -0.186,0.903 0.294,0.734 0.496,-0.174 0.194,-0.97 -0.294,-0.734z"/>
    <path class="fil4" d="M27.498 28.566c-0.505,0.215 -0.205,0.919 0.295,0.736 0.49,-0.18 0.19,-0.942 -0.295,-0.736z"/>
    <path class="fil4" d="M16.108 35.504c0.129,0.437 0.93,0.313 0.76,-0.261 -0.133,-0.451 -0.922,-0.291 -0.76,0.261z"/>
    <path class="fil4" d="M27.261 35.504c0.12,0.445 0.916,0.304 0.762,-0.257 -0.123,-0.445 -0.918,-0.312 -0.762,0.257z"/>
    <path class="fil4" d="M21.687 38.737c0.138,0.43 0.925,0.289 0.759,-0.257 -0.149,-0.49 -0.93,-0.274 -0.759,0.257z"/>
    <path class="fil4" d="M21.935 25.345c-0.553,0.226 -0.168,0.923 0.288,0.733 0.424,-0.176 0.214,-0.94 -0.288,-0.733z"/>
    <path class="fil4" d="M25.303 38.352c0.081,0.387 0.755,0.304 0.643,-0.18 -0.086,-0.377 -0.744,-0.297 -0.643,0.18z"/>
    <path class="fil4" d="M14.926 31.843c-0.464,0.174 -0.215,0.734 0.185,0.633 0.408,-0.104 0.243,-0.792 -0.185,-0.633z"/>
    <path class="fil4" d="M18.182 38.352c0.081,0.388 0.755,0.302 0.644,-0.179 -0.089,-0.384 -0.742,-0.285 -0.644,0.179z"/>
    <path class="fil4" d="M29.041 31.838c-0.476,0.133 -0.228,0.774 0.188,0.631 0.402,-0.138 0.215,-0.744 -0.188,-0.631z"/>
    <path class="fil4" d="M25.47 25.769c-0.165,0.099 -0.246,0.244 -0.131,0.457 0.07,0.128 0.277,0.199 0.451,0.109 0.376,-0.195 0.079,-0.806 -0.32,-0.566z"/>
    <path class="fil4" d="M18.348 25.768c-0.403,0.241 -0.057,0.752 0.325,0.57 0.338,-0.163 0.096,-0.819 -0.325,-0.57z"/>
   </g>
   <g>
    <path class="fil5" d="M34.239 31.445l0 1.42c0.156,0.352 0.05,2.567 1.86,5.052 0.504,0.693 1.003,1.23 1.647,1.778 2.684,2.286 5.416,2.175 5.767,2.313l1.159 0c0.135,-0.053 0.794,-0.093 1.023,-0.132 4.206,-0.725 7.372,-3.881 8.113,-8.085 0.041,-0.235 0.084,-0.92 0.137,-1.056l0 -1.159c-0.116,-0.296 0.019,-1.518 -0.955,-3.664 -0.36,-0.795 -1.23,-2.076 -1.893,-2.685 -0.514,-0.473 -0.581,-0.585 -1.243,-1.065 -2.504,-1.817 -4.695,-1.702 -5.051,-1.86l-1.421 0c-0.416,0.185 -3.407,0.039 -6.254,2.888 -2.85,2.851 -2.707,5.849 -2.889,6.255z"/>
    <g>
     <path class="fil6" d="M39.475 29.209c0.052,0.114 0.694,0.721 0.835,0.862l0.862 0.857 2.185 -2.174c0.242,-0.242 0.487,-0.506 0.736,-0.73 0.243,0.168 2.576,2.637 2.92,2.904 0.224,-0.177 1.676,-1.667 1.703,-1.725l-1.152 -1.142c-0.272,-0.273 -3.327,-3.379 -3.471,-3.453l-4.618 4.601z"/>
     <path class="fil6" d="M39.48 35.098l4.613 4.605c0.155,-0.084 3.642,-3.626 4.051,-4.035 0.149,-0.148 0.424,-0.457 0.573,-0.559 -0.05,-0.099 -1.559,-1.616 -1.703,-1.726 -0.218,0.179 -2.157,2.15 -2.565,2.558 -0.112,0.112 -0.238,0.264 -0.356,0.347 -0.374,-0.341 -1.06,-1.059 -1.457,-1.456 -0.207,-0.208 -1.334,-1.366 -1.466,-1.447l-1.69 1.713z"/>
     <path class="fil6" d="M36.55 32.155c0.082,0.128 1.65,1.669 1.713,1.701 0.215,-0.21 1.605,-1.576 1.673,-1.701 -0.113,-0.205 -1.397,-1.369 -1.676,-1.701 -0.066,0.029 -1.637,1.584 -1.71,1.701z"/>
     <path class="fil6" d="M48.255 32.155l1.672 1.699c0.139,-0.061 0.71,-0.681 0.867,-0.837 0.147,-0.147 0.769,-0.748 0.841,-0.862 -0.068,-0.108 -0.698,-0.718 -0.841,-0.861 -0.157,-0.156 -0.727,-0.775 -0.868,-0.84 -0.231,0.27 -0.567,0.574 -0.83,0.837 -0.163,0.162 -0.761,0.723 -0.841,0.864z"/>
     <polygon class="fil6" points="42.396,32.152 44.091,33.852 45.789,32.159 44.099,30.456 "/>
    </g>
   </g>
  </g>
 </g>
</svg>
