<?xml version="1.0" encoding="UTF-8"?>
<!DOCTYPE svg PUBLIC "-//W3C//DTD SVG 1.1//EN" "http://www.w3.org/Graphics/SVG/1.1/DTD/svg11.dtd">
<!-- Creator: CorelDRAW 2018 (64-Bit Evaluation Version) -->
<svg xmlns="http://www.w3.org/2000/svg" xml:space="preserve" width="64px" height="64px" version="1.1" style="shape-rendering:geometricPrecision; text-rendering:geometricPrecision; image-rendering:optimizeQuality; fill-rule:evenodd; clip-rule:evenodd"
viewBox="0 0 64 64"
 xmlns:xlink="http://www.w3.org/1999/xlink">
 <defs>
  <style type="text/css">
   <![CDATA[
    .fil0 {fill:none}
    .fil3 {fill:#3468D0}
    .fil4 {fill:#FEFEFE}
    .fil2 {fill:url(#id0)}
    .fil1 {fill:url(#id1)}
   ]]>
  </style>
  <linearGradient id="id0" gradientUnits="userSpaceOnUse" x1="51.593" y1="17.496" x2="42.905" y2="53.26">
   <stop offset="0" style="stop-opacity:1; stop-color:#FE6E98"/>
   <stop offset="1" style="stop-opacity:1; stop-color:#FE8366"/>
  </linearGradient>
  <linearGradient id="id1" gradientUnits="userSpaceOnUse" xlink:href="#id0" x1="16.858" y1="53.81" x2="30.744" y2="9.045">
  </linearGradient>
 </defs>
 <g id="Layer_x0020_1">
  <metadata id="CorelCorpID_0Corel-Layer"/>
  <g id="_2132590502464">
   <rect class="fil0" x="-0.001" y="-0.001" width="64.002" height="64.002"/>
   <g>
    <g>
     <path class="fil1" d="M32.176 55.723l-8.104 0 -0.053 0c-6.522,0 -12.448,-2.666 -16.741,-6.959 -4.294,-4.294 -6.959,-10.22 -6.959,-16.741 0,-6.522 2.665,-12.449 6.959,-16.742 4.293,-4.294 10.219,-6.959 16.741,-6.959l0.053 0 3.513 0 -0.056 -3.258 9.34 7.416 -9.09 7.217 -0.055 -3.202 -3.652 0 -0.053 0c-4.265,0 -8.146,1.748 -10.963,4.564 -2.816,2.816 -4.564,6.698 -4.564,10.963 0,4.266 1.748,8.147 4.564,10.964 2.817,2.816 6.698,4.564 10.963,4.564l0.053 0 7.81 0 -4.999 3.97 5.293 4.203z"/>
     <path class="fil2" d="M39.928 16.495l-7.111 0 5.055 -4.015 -5.237 -4.158 7.293 0 0.053 0c6.522,0 12.448,2.665 16.741,6.959 4.294,4.293 6.959,10.22 6.959,16.742 0,6.521 -2.665,12.447 -6.959,16.741 -4.293,4.293 -10.219,6.959 -16.741,6.959l-0.053 0 -2.757 0 0.054 3.213 -9.338 -7.416 9.089 -7.217 0.056 3.247 2.896 0 0.053 0c4.265,0 8.146,-1.748 10.963,-4.564 2.816,-2.817 4.564,-6.698 4.564,-10.964 0,-4.265 -1.748,-8.147 -4.564,-10.963 -2.817,-2.816 -6.698,-4.564 -10.963,-4.564l-0.053 0z"/>
    </g>
    <g>
     <path class="fil3" d="M31.698 38.737c-0.17,-0.531 0.61,-0.747 0.759,-0.257 0.165,0.546 -0.621,0.687 -0.759,0.257zm3.615 -0.385c-0.1,-0.477 0.557,-0.557 0.644,-0.18 0.112,0.484 -0.562,0.567 -0.644,0.18zm-7.12 0c-0.098,-0.464 0.554,-0.563 0.643,-0.179 0.112,0.481 -0.562,0.567 -0.643,0.179zm5.976 -1.578c-0.1,-0.692 0.925,-0.768 0.99,-0.151 0.032,0.299 -0.177,0.536 -0.435,0.564 -0.281,0.03 -0.522,-0.174 -0.555,-0.413zm-4.203 0.077c-0.231,0.624 -1.147,0.312 -0.949,-0.326 0.195,-0.626 1.177,-0.293 0.949,0.326zm1.515 -0.578c-0.102,-0.815 1.092,-0.903 1.191,-0.176 0.111,0.821 -1.1,0.899 -1.191,0.176zm5.79 -0.769c-0.155,-0.569 0.639,-0.701 0.762,-0.257 0.155,0.561 -0.642,0.702 -0.762,0.257zm-11.152 0c-0.162,-0.552 0.627,-0.712 0.76,-0.261 0.17,0.574 -0.632,0.698 -0.76,0.261zm8.857 -1.232c-0.123,-0.839 1.102,-0.932 1.189,-0.192 0.098,0.824 -1.081,0.93 -1.189,0.192zm-0.761 0.077c-0.086,0.491 -0.537,0.913 -1.135,0.812 -0.474,-0.079 -0.889,-0.56 -0.783,-1.136 0.231,-1.261 2.129,-0.894 1.918,0.324zm-4.284 -0.077c-0.07,-1.311 1.845,-1.372 1.939,-0.148 0.043,0.548 -0.37,0.999 -0.869,1.048 -0.568,0.054 -1.044,-0.389 -1.07,-0.9zm-0.773 0.077c-0.255,0.769 -1.381,0.394 -1.147,-0.369 0.216,-0.703 1.407,-0.414 1.147,0.369zm-0.411 -1.924c-0.31,-1.272 1.613,-1.702 1.894,-0.451 0.131,0.584 -0.285,1.069 -0.736,1.165 -0.583,0.125 -1.052,-0.282 -1.158,-0.714zm6.659 0c-0.124,0.447 -0.589,0.856 -1.189,0.707 -1.221,-0.306 -0.771,-2.233 0.499,-1.884 0.43,0.118 0.852,0.591 0.69,1.177zm3.646 -0.587c0.403,-0.113 0.591,0.493 0.188,0.631 -0.416,0.144 -0.664,-0.497 -0.188,-0.631zm-14.115 0.005c0.428,-0.159 0.593,0.529 0.185,0.633 -0.401,0.101 -0.65,-0.459 -0.185,-0.633zm12.243 -0.213c0.659,-0.145 0.848,0.872 0.201,0.983 -0.665,0.115 -0.804,-0.85 -0.201,-0.983zm-10.442 0.017c0.654,-0.197 0.835,0.759 0.31,0.945 -0.65,0.232 -0.982,-0.744 -0.31,-0.945zm8.683 -2.086c0.777,-0.212 1.056,0.983 0.302,1.162 -0.784,0.186 -1.072,-0.951 -0.302,-1.162zm-6.994 0.006c0.782,-0.211 1.042,0.934 0.359,1.144 -0.812,0.25 -1.134,-0.935 -0.359,-1.144zm4.545 -0.384c1.262,-0.382 1.761,1.509 0.567,1.854 -1.257,0.364 -1.788,-1.484 -0.567,-1.854zm-2.35 0c1.258,-0.374 1.756,1.499 0.569,1.855 -1.275,0.382 -1.762,-1.502 -0.569,-1.855zm6.886 -0.617c0.485,-0.206 0.786,0.556 0.296,0.736 -0.5,0.183 -0.801,-0.52 -0.296,-0.736zm-11.154 0.005c0.488,-0.236 0.79,0.56 0.293,0.734 -0.479,0.169 -0.803,-0.488 -0.293,-0.734zm5.515 -0.995c0.77,-0.308 1.129,0.838 0.432,1.109 -0.512,0.198 -1.007,-0.317 -0.758,-0.834 0.094,-0.196 0.123,-0.194 0.326,-0.275zm2.676 -0.435c0.62,-0.178 0.887,0.805 0.251,0.963 -0.654,0.162 -0.901,-0.777 -0.251,-0.963zm-5.165 -0.005c0.643,-0.159 0.82,0.817 0.259,0.967 -0.677,0.18 -0.922,-0.804 -0.259,-0.967zm6.1 -1.367c0.4,-0.24 0.696,0.371 0.321,0.566 -0.175,0.091 -0.381,0.019 -0.451,-0.109 -0.115,-0.213 -0.034,-0.358 0.13,-0.457zm-7.12 -0.001c0.419,-0.249 0.662,0.408 0.323,0.57 -0.382,0.182 -0.728,-0.329 -0.323,-0.57zm3.586 -0.423c0.501,-0.207 0.711,0.558 0.288,0.733 -0.457,0.19 -0.841,-0.507 -0.288,-0.733zm-9.799 6.1l0 1.42c0.156,0.352 0.05,2.567 1.859,5.052 0.505,0.693 1.004,1.23 1.647,1.778 2.685,2.286 5.417,2.175 5.767,2.313l1.16 0c0.134,-0.053 0.793,-0.092 1.022,-0.132 4.206,-0.725 7.373,-3.881 8.113,-8.085 0.041,-0.235 0.084,-0.92 0.138,-1.056l0 -1.159c-0.117,-0.296 0.018,-1.518 -0.955,-3.664 -0.361,-0.795 -1.231,-2.076 -1.893,-2.685 -0.514,-0.473 -0.581,-0.585 -1.243,-1.065 -2.505,-1.817 -4.696,-1.702 -5.052,-1.86l-1.42 0c-0.417,0.185 -3.407,0.039 -6.255,2.888 -2.849,2.851 -2.707,5.849 -2.888,6.255z"/>
     <path class="fil4" d="M32.972 29.183c-1.221,0.37 -0.69,2.218 0.567,1.854 1.194,-0.345 0.695,-2.236 -0.567,-1.854z"/>
     <path class="fil4" d="M35.406 32.425c0.162,-0.586 -0.26,-1.059 -0.69,-1.177 -1.27,-0.349 -1.72,1.578 -0.499,1.884 0.6,0.149 1.065,-0.26 1.189,-0.707z"/>
     <path class="fil4" d="M30.622 29.183c-1.193,0.353 -0.706,2.237 0.569,1.855 1.187,-0.356 0.689,-2.229 -0.569,-1.855z"/>
     <path class="fil4" d="M34.215 34.349c0.211,-1.218 -1.687,-1.585 -1.918,-0.324 -0.106,0.576 0.309,1.057 0.783,1.136 0.598,0.101 1.049,-0.321 1.135,-0.812z"/>
     <path class="fil4" d="M28.747 32.425c0.106,0.432 0.575,0.839 1.158,0.714 0.451,-0.096 0.867,-0.581 0.736,-1.165 -0.281,-1.251 -2.204,-0.821 -1.894,0.451z"/>
     <path class="fil4" d="M29.931 34.272c0.026,0.511 0.502,0.954 1.07,0.9 0.499,-0.049 0.912,-0.5 0.869,-1.048 -0.094,-1.224 -2.009,-1.163 -1.939,0.148z"/>
     <path class="fil4" d="M35.421 29.561c-0.77,0.211 -0.482,1.348 0.302,1.162 0.754,-0.179 0.475,-1.374 -0.302,-1.162z"/>
     <path class="fil4" d="M34.976 34.272c0.108,0.738 1.287,0.632 1.189,-0.192 -0.087,-0.74 -1.312,-0.647 -1.189,0.192z"/>
     <path class="fil4" d="M29.158 34.349c0.26,-0.783 -0.931,-1.072 -1.147,-0.369 -0.234,0.763 0.892,1.138 1.147,0.369z"/>
     <path class="fil4" d="M28.427 29.567c-0.775,0.209 -0.453,1.394 0.359,1.144 0.683,-0.21 0.423,-1.355 -0.359,-1.144z"/>
     <path class="fil4" d="M31.869 27.576c-0.203,0.081 -0.232,0.079 -0.326,0.275 -0.249,0.517 0.246,1.032 0.758,0.834 0.697,-0.271 0.338,-1.417 -0.432,-1.109z"/>
     <path class="fil4" d="M31.481 36.273c0.091,0.723 1.302,0.645 1.191,-0.176 -0.099,-0.727 -1.293,-0.639 -1.191,0.176z"/>
     <path class="fil4" d="M29.966 36.851c0.228,-0.619 -0.754,-0.952 -0.949,-0.326 -0.198,0.638 0.718,0.95 0.949,0.326z"/>
     <path class="fil4" d="M34.545 27.141c-0.65,0.186 -0.403,1.125 0.251,0.963 0.636,-0.158 0.369,-1.141 -0.251,-0.963z"/>
     <path class="fil4" d="M37.18 31.63c-0.603,0.133 -0.464,1.098 0.201,0.983 0.647,-0.111 0.458,-1.128 -0.201,-0.983z"/>
     <path class="fil4" d="M29.38 27.136c-0.663,0.163 -0.418,1.147 0.259,0.967 0.561,-0.15 0.384,-1.126 -0.259,-0.967z"/>
     <path class="fil4" d="M26.738 31.647c-0.672,0.201 -0.34,1.177 0.31,0.945 0.525,-0.186 0.344,-1.142 -0.31,-0.945z"/>
     <path class="fil4" d="M34.169 36.774c0.033,0.239 0.274,0.443 0.555,0.413 0.258,-0.028 0.467,-0.265 0.435,-0.564 -0.065,-0.617 -1.09,-0.541 -0.99,0.151z"/>
     <path class="fil4" d="M26.354 28.571c-0.51,0.246 -0.186,0.903 0.293,0.734 0.497,-0.174 0.195,-0.97 -0.293,-0.734z"/>
     <path class="fil4" d="M37.508 28.566c-0.505,0.216 -0.204,0.919 0.296,0.736 0.49,-0.18 0.189,-0.942 -0.296,-0.736z"/>
     <path class="fil4" d="M26.119 35.504c0.128,0.437 0.93,0.313 0.76,-0.261 -0.133,-0.451 -0.922,-0.291 -0.76,0.261z"/>
     <path class="fil4" d="M37.271 35.504c0.12,0.445 0.917,0.304 0.762,-0.257 -0.123,-0.444 -0.917,-0.312 -0.762,0.257z"/>
     <path class="fil4" d="M31.698 38.737c0.138,0.43 0.924,0.289 0.759,-0.257 -0.149,-0.49 -0.929,-0.274 -0.759,0.257z"/>
     <path class="fil4" d="M31.946 25.345c-0.553,0.226 -0.169,0.923 0.288,0.733 0.423,-0.175 0.213,-0.94 -0.288,-0.733z"/>
     <path class="fil4" d="M35.313 38.352c0.082,0.387 0.756,0.304 0.644,-0.18 -0.087,-0.377 -0.744,-0.297 -0.644,0.18z"/>
     <path class="fil4" d="M24.937 31.843c-0.465,0.174 -0.216,0.734 0.185,0.633 0.408,-0.104 0.243,-0.792 -0.185,-0.633z"/>
     <path class="fil4" d="M28.193 38.352c0.081,0.388 0.755,0.302 0.643,-0.179 -0.089,-0.384 -0.741,-0.285 -0.643,0.179z"/>
     <path class="fil4" d="M39.052 31.838c-0.476,0.134 -0.228,0.775 0.188,0.631 0.403,-0.138 0.215,-0.744 -0.188,-0.631z"/>
     <path class="fil4" d="M35.48 25.769c-0.164,0.099 -0.245,0.244 -0.13,0.457 0.07,0.128 0.276,0.2 0.451,0.109 0.375,-0.195 0.079,-0.806 -0.321,-0.566z"/>
     <path class="fil4" d="M28.36 25.768c-0.405,0.241 -0.059,0.752 0.323,0.57 0.339,-0.162 0.096,-0.819 -0.323,-0.57z"/>
    </g>
   </g>
  </g>
 </g>
</svg>
