<?xml version="1.0" encoding="UTF-8"?>
<!DOCTYPE svg PUBLIC "-//W3C//DTD SVG 1.1//EN" "http://www.w3.org/Graphics/SVG/1.1/DTD/svg11.dtd">
<!-- Creator: CorelDRAW 2018 (64-Bit Evaluation Version) -->
<svg xmlns="http://www.w3.org/2000/svg" xml:space="preserve" width="64px" height="64px" version="1.1" style="shape-rendering:geometricPrecision; text-rendering:geometricPrecision; image-rendering:optimizeQuality; fill-rule:evenodd; clip-rule:evenodd"
viewBox="0 0 64 64"
 xmlns:xlink="http://www.w3.org/1999/xlink">
 <defs>
  <style type="text/css">
   <![CDATA[
    .fil0 {fill:none}
    .fil3 {fill:#F5921A}
    .fil5 {fill:#F7931A}
    .fil4 {fill:#FEFEFE}
    .fil2 {fill:url(#id0)}
    .fil1 {fill:url(#id1)}
   ]]>
  </style>
  <linearGradient id="id0" gradientUnits="userSpaceOnUse" x1="51.593" y1="17.496" x2="42.905" y2="53.26">
   <stop offset="0" style="stop-opacity:1; stop-color:#FE6E98"/>
   <stop offset="1" style="stop-opacity:1; stop-color:#FE8366"/>
  </linearGradient>
  <linearGradient id="id1" gradientUnits="userSpaceOnUse" xlink:href="#id0" x1="16.858" y1="53.81" x2="30.744" y2="9.045">
  </linearGradient>
 </defs>
 <g id="Layer_x0020_1">
  <metadata id="CorelCorpID_0Corel-Layer"/>
  <g id="_2132592094992">
   <rect class="fil0" x="-0.001" y="-0.001" width="64.002" height="64.002"/>
   <g>
    <g>
     <path class="fil1" d="M32.176 55.723l-8.104 0 -0.053 0c-6.522,0 -12.448,-2.666 -16.741,-6.959 -4.294,-4.294 -6.959,-10.22 -6.959,-16.741 0,-6.522 2.665,-12.449 6.959,-16.742 4.293,-4.294 10.219,-6.959 16.741,-6.959l0.053 0 3.513 0 -0.056 -3.258 9.34 7.416 -9.09 7.217 -0.055 -3.202 -3.652 0 -0.053 0c-4.265,0 -8.146,1.748 -10.963,4.564 -2.816,2.816 -4.564,6.698 -4.564,10.963 0,4.266 1.748,8.147 4.564,10.964 2.817,2.816 6.698,4.564 10.963,4.564l0.053 0 7.81 0 -4.999 3.97 5.293 4.203z"/>
     <path class="fil2" d="M39.928 16.495l-7.111 0 5.055 -4.015 -5.237 -4.158 7.293 0 0.053 0c6.522,0 12.448,2.665 16.741,6.959 4.294,4.293 6.959,10.22 6.959,16.742 0,6.521 -2.665,12.447 -6.959,16.741 -4.293,4.293 -10.219,6.959 -16.741,6.959l-0.053 0 -2.757 0 0.054 3.213 -9.338 -7.416 9.089 -7.217 0.056 3.247 2.896 0 0.053 0c4.265,0 8.146,-1.748 10.963,-4.564 2.816,-2.817 4.564,-6.698 4.564,-10.964 0,-4.265 -1.748,-8.147 -4.564,-10.963 -2.817,-2.816 -6.698,-4.564 -10.963,-4.564l-0.053 0z"/>
    </g>
    <g>
     <path class="fil3" d="M31.751 25.842l1.062 0.271 -0.423 1.707 0.852 0.191 0.419 -1.683c0.123,0.002 0.967,0.213 1.067,0.266l-0.428 1.73c0.145,0.099 0.663,0.216 1.274,0.622 0.319,0.211 0.681,0.574 0.814,1.052 0.144,0.522 0.016,1.149 -0.214,1.557 -0.206,0.365 -0.564,0.671 -1.083,0.78 0.004,0.004 0.009,0.009 0.012,0.012 0.07,0.066 0.1,0.068 0.184,0.119 0.066,0.041 0.113,0.074 0.172,0.116 0.336,0.237 0.625,0.582 0.723,1.029 0.138,0.637 -0.119,1.417 -0.393,1.87 -0.277,0.457 -0.695,0.818 -1.367,0.961 -0.819,0.175 -1.396,0.006 -2.132,-0.077l-0.445 1.758 -1.058 -0.261 0.431 -1.742 -0.847 -0.211 -0.429 1.74 -1.068 -0.261 0.437 -1.776 -2.139 -0.539 0.518 -1.211c0.263,0.024 0.789,0.263 1.026,0.185 0.277,-0.09 0.31,-0.513 0.388,-0.825l0.975 -3.913c0.071,-0.28 0.18,-0.648 -0.229,-0.854 -0.155,-0.079 -0.761,-0.227 -0.961,-0.254l0.286 -1.14c0.395,0.093 1.892,0.497 2.141,0.523l0.435 -1.742zm-9.604 5.681l0 0.988c0.03,0.071 0.097,0.88 0.126,1.055 0.054,0.335 0.122,0.653 0.206,0.969 0.216,0.823 0.605,1.768 1.033,2.469 0.429,0.699 0.514,0.77 0.976,1.373 0.083,0.109 0.186,0.202 0.273,0.304 0.175,0.206 0.177,0.174 0.287,0.29 0.06,0.064 0.084,0.103 0.147,0.161l0.792 0.671c1.377,1.03 2.735,1.642 4.479,1.929 0.173,0.028 0.979,0.096 1.04,0.121l0.846 0 1.065 -0.103c0.912,-0.133 1.934,-0.422 2.73,-0.812 0.716,-0.351 1.578,-0.855 2.155,-1.366 0.257,-0.229 0.68,-0.589 0.911,-0.859 0.092,-0.108 0.184,-0.2 0.282,-0.314 0.593,-0.692 0.974,-1.328 1.392,-2.15 0.266,-0.524 0.468,-1.122 0.638,-1.729 0.086,-0.314 0.15,-0.638 0.204,-0.97 0.03,-0.179 0.097,-1.008 0.124,-1.074l0 -0.987c-0.029,-0.067 -0.098,-0.878 -0.127,-1.058 -0.054,-0.333 -0.119,-0.649 -0.206,-0.966 -0.348,-1.259 -0.778,-2.134 -1.487,-3.17 -0.271,-0.398 -0.494,-0.624 -0.785,-0.966l-0.587 -0.587c-0.106,-0.089 -0.194,-0.181 -0.307,-0.271 -0.22,-0.176 -0.41,-0.338 -0.66,-0.512 -0.46,-0.32 -0.914,-0.588 -1.471,-0.859 -0.824,-0.401 -1.743,-0.681 -2.672,-0.83 -0.187,-0.03 -0.956,-0.088 -1.04,-0.123l-1.006 0c-0.062,0.026 -0.882,0.094 -1.053,0.123 -1.476,0.246 -2.978,0.832 -4.168,1.705l-0.661 0.513c-0.111,0.085 -0.201,0.184 -0.304,0.272 -0.206,0.178 -0.18,0.184 -0.291,0.288 -0.2,0.19 -0.395,0.388 -0.564,0.609 -0.046,0.059 -0.087,0.1 -0.141,0.166 -1.079,1.344 -1.776,2.923 -2.058,4.659 -0.028,0.176 -0.091,0.973 -0.118,1.041z"/>
     <path class="fil4" d="M30.731 34.617c0.001,-0.096 0.524,-2.211 0.576,-2.33 0.169,0.004 0.741,0.159 0.925,0.212 0.308,0.089 0.561,0.172 0.84,0.296 0.465,0.206 1.056,0.61 0.942,1.299 -0.108,0.654 -0.64,0.89 -1.379,0.878 -0.444,-0.007 -1.504,-0.193 -1.904,-0.355zm1.363 -5.534c0.444,0.059 1.138,0.266 1.497,0.441 0.392,0.189 0.863,0.544 0.749,1.162 -0.24,1.305 -2.071,0.66 -2.769,0.519l0.523 -2.122zm-0.778 -1.499c-0.249,-0.026 -1.746,-0.43 -2.141,-0.523l-0.286 1.14c0.2,0.027 0.806,0.175 0.961,0.254 0.409,0.206 0.3,0.574 0.229,0.854l-0.975 3.913c-0.078,0.312 -0.111,0.735 -0.388,0.825 -0.237,0.078 -0.763,-0.161 -1.026,-0.185l-0.518 1.211 2.139 0.539 -0.437 1.776 1.068 0.261 0.429 -1.74 0.847 0.211 -0.431 1.742 1.058 0.261 0.445 -1.758c0.736,0.083 1.313,0.252 2.132,0.077 0.672,-0.143 1.09,-0.504 1.367,-0.961 0.274,-0.453 0.531,-1.233 0.393,-1.87 -0.098,-0.447 -0.387,-0.792 -0.723,-1.029 -0.059,-0.042 -0.106,-0.075 -0.172,-0.116 -0.084,-0.051 -0.114,-0.053 -0.184,-0.119 -0.003,-0.003 -0.008,-0.008 -0.012,-0.012 0.519,-0.109 0.877,-0.415 1.083,-0.78 0.23,-0.408 0.358,-1.035 0.214,-1.557 -0.133,-0.478 -0.495,-0.841 -0.814,-1.052 -0.611,-0.406 -1.129,-0.523 -1.274,-0.622l0.428 -1.73c-0.1,-0.053 -0.944,-0.264 -1.067,-0.266l-0.419 1.683 -0.852 -0.191 0.423 -1.707 -1.062 -0.271 -0.435 1.742z"/>
     <path class="fil5" d="M30.731 34.617c0.4,0.162 1.46,0.348 1.904,0.355 0.739,0.012 1.271,-0.224 1.379,-0.878 0.114,-0.689 -0.477,-1.093 -0.942,-1.299 -0.279,-0.124 -0.532,-0.207 -0.84,-0.296 -0.184,-0.053 -0.756,-0.208 -0.925,-0.212 -0.052,0.119 -0.575,2.234 -0.576,2.33z"/>
     <path class="fil5" d="M31.571 31.205c0.698,0.141 2.529,0.786 2.769,-0.519 0.114,-0.618 -0.357,-0.973 -0.749,-1.162 -0.359,-0.175 -1.053,-0.382 -1.497,-0.441l-0.523 2.122z"/>
    </g>
   </g>
  </g>
 </g>
</svg>
