<?xml version="1.0" encoding="UTF-8"?>
<!DOCTYPE svg PUBLIC "-//W3C//DTD SVG 1.1//EN" "http://www.w3.org/Graphics/SVG/1.1/DTD/svg11.dtd">
<!-- Creator: CorelDRAW 2018 (64-Bit Evaluation Version) -->
<svg xmlns="http://www.w3.org/2000/svg" xml:space="preserve" width="64px" height="64px" version="1.1" style="shape-rendering:geometricPrecision; text-rendering:geometricPrecision; image-rendering:optimizeQuality; fill-rule:evenodd; clip-rule:evenodd"
viewBox="0 0 64 64"
 xmlns:xlink="http://www.w3.org/1999/xlink">
 <defs>
  <style type="text/css">
   <![CDATA[
    .fil0 {fill:none}
    .fil3 {fill:#EFB80A}
    .fil4 {fill:white}
    .fil2 {fill:url(#id0)}
    .fil1 {fill:url(#id1)}
   ]]>
  </style>
  <linearGradient id="id0" gradientUnits="userSpaceOnUse" x1="51.593" y1="17.496" x2="42.905" y2="53.26">
   <stop offset="0" style="stop-opacity:1; stop-color:#FE6E98"/>
   <stop offset="1" style="stop-opacity:1; stop-color:#FE8366"/>
  </linearGradient>
  <linearGradient id="id1" gradientUnits="userSpaceOnUse" xlink:href="#id0" x1="16.858" y1="53.81" x2="30.744" y2="9.045">
  </linearGradient>
 </defs>
 <g id="Layer_x0020_1">
  <metadata id="CorelCorpID_0Corel-Layer"/>
  <g id="_2132474792304">
   <rect class="fil0" x="-0.001" y="-0.001" width="64.002" height="64.002"/>
   <g>
    <path class="fil1" d="M32.176 55.723l-8.104 0 -0.053 0c-6.522,0 -12.448,-2.666 -16.741,-6.959 -4.294,-4.294 -6.959,-10.22 -6.959,-16.741 0,-6.522 2.665,-12.449 6.959,-16.742 4.293,-4.294 10.219,-6.959 16.741,-6.959l0.053 0 3.513 0 -0.056 -3.258 9.34 7.416 -9.09 7.217 -0.055 -3.202 -3.652 0 -0.053 0c-4.265,0 -8.146,1.748 -10.963,4.564 -2.816,2.816 -4.564,6.698 -4.564,10.963 0,4.266 1.748,8.147 4.564,10.964 2.817,2.816 6.698,4.564 10.963,4.564l0.053 0 7.81 0 -4.999 3.97 5.293 4.203z"/>
    <path class="fil2" d="M39.928 16.495l-7.111 0 5.055 -4.015 -5.237 -4.158 7.293 0 0.053 0c6.522,0 12.448,2.665 16.741,6.959 4.294,4.293 6.959,10.22 6.959,16.742 0,6.521 -2.665,12.447 -6.959,16.741 -4.293,4.293 -10.219,6.959 -16.741,6.959l-0.053 0 -2.757 0 0.054 3.213 -9.338 -7.416 9.089 -7.217 0.056 3.247 2.896 0 0.053 0c4.265,0 8.146,-1.748 10.963,-4.564 2.816,-2.817 4.564,-6.698 4.564,-10.964 0,-4.265 -1.748,-8.147 -4.564,-10.963 -2.817,-2.816 -6.698,-4.564 -10.963,-4.564l-0.053 0z"/>
   </g>
   <path class="fil3" d="M21.697 31.445l0 1.42c0.156,0.352 0.05,2.567 1.859,5.052 0.504,0.693 1.004,1.23 1.648,1.778 2.684,2.286 5.416,2.175 5.766,2.313l1.16 0c0.135,-0.053 0.794,-0.092 1.022,-0.132 4.206,-0.725 7.373,-3.881 8.113,-8.085 0.042,-0.235 0.085,-0.92 0.138,-1.056l0 -1.159c-0.116,-0.296 0.018,-1.518 -0.955,-3.664 -0.361,-0.795 -1.231,-2.076 -1.894,-2.685 -0.514,-0.473 -0.58,-0.585 -1.242,-1.065 -2.505,-1.817 -4.695,-1.702 -5.052,-1.86l-1.421 0c-0.415,0.185 -3.407,0.039 -6.254,2.888 -2.849,2.851 -2.707,5.849 -2.888,6.255z"/>
   <g>
    <path class="fil4" d="M31.549 39.368l0.005 0 7.183 -7.191c-0.049,-0.073 -0.158,-0.164 -0.227,-0.234 -0.077,-0.079 -0.146,-0.153 -0.222,-0.232 -0.074,-0.077 -0.152,-0.151 -0.226,-0.228l-1.011 -1.035c-0.032,-0.034 -0.077,-0.087 -0.111,-0.113 -0.037,0.022 -0.194,0.185 -0.232,0.222l-1.57 1.581c-0.303,0.302 -0.597,0.603 -0.899,0.908l-4.488 4.516c0.017,0.031 0.392,0.398 0.45,0.455l1.348 1.351z"/>
    <path class="fil4" d="M36.046 29.483c-0.218,-0.234 -0.456,-0.463 -0.676,-0.693 -0.068,-0.071 -0.152,-0.17 -0.223,-0.23l-0.904 -0.918c-0.036,0.027 -0.08,0.078 -0.115,0.114l-0.34 0.336c-0.152,0.151 -0.296,0.299 -0.447,0.452l-5.842 5.877c-0.089,0.09 -0.383,0.378 -0.443,0.45 0.148,0.153 0.3,0.302 0.453,0.454l0.899 0.899c0.056,0.056 0.422,0.43 0.452,0.446l7.186 -7.187z"/>
    <path class="fil4" d="M31.554 24.943l-0.006 0 -0.28 0.287c-0.092,0.096 -0.188,0.185 -0.283,0.282l-1.543 1.563c-0.047,0.047 -0.092,0.1 -0.141,0.142 -0.129,0.113 -0.424,0.426 -0.563,0.567 -0.187,0.189 -0.376,0.377 -0.563,0.566 -0.19,0.192 -0.373,0.378 -0.561,0.57 -0.183,0.188 -0.369,0.365 -0.559,0.563l1.804 1.8c0.042,-0.036 0.094,-0.089 0.141,-0.138l0.424 -0.424c0.538,-0.556 1.136,-1.127 1.682,-1.682 0.548,-0.558 1.127,-1.129 1.686,-1.686 0.171,-0.171 0.4,-0.392 0.558,-0.561l-0.447 -0.466c-0.074,-0.077 -0.151,-0.151 -0.225,-0.228 -0.069,-0.072 -0.15,-0.168 -0.223,-0.231 -0.084,-0.073 -0.155,-0.156 -0.229,-0.233l-0.672 -0.691z"/>
    <path class="fil4" d="M26.163 33.976c0.027,-0.015 0.194,-0.188 0.23,-0.225 0.075,-0.073 0.148,-0.145 0.223,-0.222 0.369,-0.378 0.753,-0.743 1.126,-1.126 0.033,-0.034 0.075,-0.075 0.111,-0.111 0.037,-0.036 0.084,-0.079 0.111,-0.115 -0.055,-0.072 -1.007,-1.032 -1.126,-1.156l-0.447 -0.46c-0.038,-0.04 -0.186,-0.206 -0.228,-0.226 -0.036,0.026 -0.083,0.082 -0.116,0.117l-1.011 1.035c-0.087,0.091 -0.645,0.649 -0.673,0.693l1.8 1.796z"/>
   </g>
  </g>
 </g>
</svg>
