<svg width="64" height="64" viewBox="0 0 64 64" fill="none" xmlns="http://www.w3.org/2000/svg">
<path d="M32 64C49.6731 64 64 49.6731 64 32C64 14.3269 49.6731 0 32 0C14.3269 0 0 14.3269 0 32C0 49.6731 14.3269 64 32 64Z" fill="#0584FF"/>
<path d="M34.8254 40.9764C35.2759 38.3703 39.3915 37.1553 45.4606 31.7703C51.5297 26.3853 52.7678 20.8122 50.4887 16.4481C48.7966 13.2071 44.1393 10.9373 37.9767 11.2961C32.1399 11.6349 26.3982 13.882 24.498 14.6903C24.4122 14.7267 24.3346 14.78 24.2698 14.8471C24.2051 14.9141 24.1544 14.9935 24.1209 15.0805C24.0874 15.1674 24.0718 15.2603 24.0749 15.3534C24.078 15.4466 24.0998 15.5382 24.139 15.6228L24.1467 15.6397C24.2224 15.803 24.3583 15.9307 24.5261 15.9959C24.6938 16.0612 24.8803 16.059 25.0465 15.9898C26.3531 15.4458 27.9758 14.9092 28.7963 14.6458C28.939 14.5999 29.0939 14.6096 29.2299 14.6729C29.3658 14.7362 29.4729 14.8484 29.5297 14.9873L29.5355 15.001C29.5654 15.0743 29.5805 15.1529 29.5798 15.2321C29.5791 15.3113 29.5627 15.3896 29.5314 15.4623C29.5001 15.5351 29.4546 15.6009 29.3977 15.6559C29.3407 15.711 29.2733 15.7541 29.1995 15.7828C24.0449 17.7898 19.699 20.1226 18.2078 20.9521C18.059 21.0345 17.9478 21.1712 17.8974 21.3337C17.8469 21.4962 17.8611 21.6718 17.9371 21.8241L17.9447 21.8394C18.023 21.9954 18.1598 22.114 18.3253 22.1696C18.4907 22.2251 18.6714 22.2129 18.8279 22.1357C23.5639 19.8049 28.1038 18.0717 29.6119 17.513C29.7537 17.4606 29.9101 17.4646 30.049 17.5241C30.1879 17.5837 30.2987 17.6942 30.3585 17.833C30.42 17.9765 30.4221 18.1385 30.3644 18.2836C30.3067 18.4287 30.1939 18.545 30.0507 18.6071C29.7492 18.7376 29.3847 18.8951 29.1339 19.0055C28.883 19.1159 28.4798 19.3306 28.1508 19.5111C27.9982 19.5947 27.8843 19.7347 27.8335 19.9012C27.7827 20.0676 27.7989 20.2473 27.8788 20.402V20.402C27.9564 20.552 28.088 20.667 28.2471 20.7236C28.4062 20.7803 28.5808 20.7745 28.7358 20.7073C30.4516 19.961 35.7076 17.833 39.747 17.8765C43.9428 17.9217 45.4295 20.8813 43.9419 24.3921C42.4542 27.9028 37.8132 31.8001 32.9934 36.0842C28.1735 40.3684 30.1076 44.1767 34.8084 47.2113C39.5092 50.2458 45.6081 51.793 48.7604 51.9716C37.6359 48.7287 34.3748 43.5841 34.8254 40.9764Z" fill="white"/>
<path d="M24.553 40.9885C27.281 34.3325 32.6286 29.9392 32.6286 29.9392C32.6286 29.9392 33.0801 31.8912 33.5287 33.2403C34.2382 31.167 36.4753 25.3286 41.2497 19.4902C41.2497 19.4902 32.3012 20.4451 24.5802 25.5469C25.8897 25.4922 27.554 25.6832 28.2087 25.8198C26.2446 27.7296 21.1428 33.4861 19.7239 38.233C18.305 42.9798 18.9879 49.6435 27.363 52.9414C25.7262 51.2739 21.8241 47.6454 24.553 40.9885Z" fill="white"/>
<path d="M19.9139 18.1953C20.0245 18.1952 20.1332 18.1659 20.2288 18.1102C21.2173 17.5342 22.2886 17.1274 22.2995 17.1233C22.4514 17.0622 22.5733 16.9441 22.6392 16.7943C22.705 16.6444 22.7096 16.4747 22.6519 16.3216C22.5943 16.1684 22.4789 16.0439 22.3305 15.9747C22.1822 15.9055 22.0126 15.8972 21.8582 15.9514C21.8109 15.9694 20.6806 16.3972 19.5981 17.0283C19.4792 17.0976 19.3866 17.2042 19.3344 17.3315C19.2822 17.4589 19.2734 17.5998 19.3093 17.7326C19.3453 17.8655 19.424 17.9828 19.5333 18.0664C19.6425 18.15 19.7763 18.1953 19.9139 18.1953V18.1953Z" fill="white"/>
<path d="M15.6259 22.4913C15.5619 22.5194 14.0483 23.1889 12.7091 24.137C12.6412 24.1842 12.5834 24.2444 12.5389 24.3141C12.4944 24.3838 12.4641 24.4616 12.4498 24.5431C12.4356 24.6245 12.4376 24.708 12.4557 24.7887C12.4739 24.8693 12.5078 24.9456 12.5556 25.0131C12.6034 25.0806 12.6641 25.1379 12.7342 25.1818C12.8042 25.2257 12.8823 25.2553 12.9639 25.2689C13.0454 25.2825 13.1289 25.2798 13.2094 25.2609C13.2899 25.2421 13.3659 25.2075 13.433 25.1591C14.6624 24.2881 16.1075 23.6481 16.1296 23.6378C16.2789 23.5693 16.3954 23.4448 16.4538 23.2912C16.5122 23.1376 16.5079 22.9672 16.4418 22.8168C16.3757 22.6663 16.2531 22.5479 16.1005 22.487C15.9479 22.4261 15.7774 22.4276 15.6259 22.4913V22.4913Z" fill="white"/>
<path d="M23.34 23.5774C23.4675 23.5774 23.5919 23.5383 23.6965 23.4654C24.9691 22.5809 26.4805 21.9243 26.5045 21.9141C26.6537 21.8462 26.7703 21.7225 26.8293 21.5697C26.8884 21.4168 26.8852 21.2468 26.8203 21.0963C26.7555 20.9458 26.6342 20.8266 26.4826 20.7645C26.3309 20.7024 26.1609 20.7022 26.0091 20.764C25.9425 20.7924 24.3643 21.4766 22.9822 22.4369C22.8727 22.5131 22.7903 22.6222 22.7471 22.7484C22.7039 22.8746 22.7022 23.0113 22.7421 23.1386C22.782 23.2659 22.8615 23.3771 22.9691 23.4561C23.0766 23.535 23.2066 23.5775 23.34 23.5774V23.5774Z" fill="white"/>
</svg>
