<svg width="64" height="64" viewBox="0 0 64 64" fill="none" xmlns="http://www.w3.org/2000/svg">
<path d="M32 64C49.6731 64 64 49.6731 64 32C64 14.3269 49.6731 0 32 0C14.3269 0 0 14.3269 0 32C0 49.6731 14.3269 64 32 64Z" fill="url(#paint0_radial)"/>
<path d="M45.6517 33.4014C48.036 30.2737 47.6866 26.6977 45.7419 24.2069C43.9666 21.9349 39.9455 19.9406 38.4709 19.3333C38.7951 19.1179 39.6549 18.6549 40.3727 18.4011C35.0965 17.3131 30.0536 18.7336 30.0536 18.7336C33.8968 20.8561 36.3688 23.5278 37.2008 24.4936C37.1515 23.6673 36.9733 22.5147 36.9733 22.5147C36.9733 22.5147 40.7701 23.7742 43.7282 26.7387C45.5141 28.5307 45.411 30.571 44.8261 32.2958C39.436 25.9198 27.3599 25.0961 27.3599 19.2929C27.3599 15.8926 30.6485 14.7777 33.9935 14.7777C38.0629 14.7777 41.0171 15.5582 43.8043 17.6763C44.6642 18.3637 46.9954 19.6945 46.8642 22.2616C47.1746 21.5797 47.9278 19.2289 45.0862 16.5057C45.0516 16.4718 45.0152 16.4398 44.9771 16.4097C42.3746 14.1576 39.0949 11.9893 33.2127 11.9893C23.2901 11.9893 17.9941 16.3931 17.9941 22.6923C17.9941 25.0225 18.6386 26.8571 19.6965 28.3505C17.4565 31.4353 17.8293 34.9243 19.7375 37.3681C21.5129 39.6401 25.534 41.6344 27.0085 42.2417C26.6844 42.4571 25.8245 42.9201 25.1064 43.1742C30.3829 44.2622 35.4258 42.8414 35.4258 42.8414C31.5826 40.7189 29.1106 38.0475 28.2786 37.0814C28.3279 37.9077 28.5061 39.0603 28.5061 39.0603C28.5061 39.0603 24.7093 37.8008 21.7513 34.8363C20.0233 33.1035 20.0636 31.1355 20.5993 29.4472C26.0527 35.2027 38.1749 35.2792 38.1749 42.2353C38.1749 44.6488 35.1759 46.5787 30.0552 46.1355C27.644 45.9265 25.2335 45.3121 23.0975 44.4856C23.0121 44.4522 22.9208 44.4363 22.8292 44.4386C22.7375 44.441 22.6472 44.4616 22.5636 44.4993C22.48 44.5369 22.4047 44.5909 22.3422 44.658C22.2797 44.7251 22.2312 44.804 22.1996 44.8901V44.8901C22.14 45.0535 22.1445 45.2335 22.2122 45.3938C22.2798 45.554 22.4057 45.6828 22.5644 45.7541C23.5707 46.2064 24.608 46.5864 25.6684 46.891C25.7954 46.9275 25.9029 47.0126 25.9674 47.1279C26.032 47.2432 26.0483 47.3794 26.013 47.5067V47.5067C25.9777 47.6346 25.8934 47.7433 25.7783 47.8092C25.6632 47.8752 25.5267 47.8929 25.3986 47.8587C23.1282 47.2549 20.8581 46.1006 19.022 44.8264C18.8984 44.7402 18.7456 44.7067 18.5973 44.7332C18.449 44.7597 18.3172 44.844 18.2311 44.9677C18.145 45.0913 18.1114 45.244 18.1379 45.3924C18.1644 45.5407 18.2488 45.6724 18.3724 45.7585C20.3212 47.1201 22.8844 48.3505 25.1311 48.9473C25.2532 48.9792 25.3578 49.0579 25.4223 49.1664C25.4868 49.2749 25.506 49.4044 25.4757 49.5269V49.5269C25.4603 49.5895 25.4325 49.6484 25.3938 49.7C25.3552 49.7516 25.3065 49.795 25.2508 49.8274C25.195 49.8598 25.1333 49.8806 25.0693 49.8886C25.0053 49.8967 24.9403 49.8917 24.8783 49.8741C23.38 49.457 21.9331 48.8737 20.5644 48.1352C20.4955 48.0977 20.4198 48.0748 20.3417 48.0676C20.2637 48.0605 20.185 48.0694 20.1105 48.0937C20.036 48.118 19.9672 48.1573 19.9084 48.2091C19.8496 48.2609 19.802 48.3242 19.7685 48.395V48.395C19.7074 48.525 19.6971 48.6732 19.7396 48.8104C19.7821 48.9477 19.8744 49.0641 19.9983 49.1368C22.9423 50.8648 26.8053 52.0696 31.429 52.0696C40.181 52.0696 47.3723 47.387 47.3723 39.4155C47.3714 36.9918 46.7198 35.0318 45.6517 33.4014Z" fill="white"/>
<path d="M18.6951 46.9911C17.5751 46.3341 16.578 45.5014 16.561 45.487C16.43 45.377 16.2606 45.3235 16.0901 45.3384C15.9197 45.3532 15.7621 45.4352 15.6521 45.5662C15.542 45.6973 15.4886 45.8667 15.5034 46.0371C15.5183 46.2076 15.6002 46.3652 15.7313 46.4752C15.7751 46.512 16.8218 47.3876 18.0423 48.1037C18.1153 48.1466 18.1961 48.1747 18.2801 48.1863C18.364 48.1979 18.4494 48.1929 18.5314 48.1716C18.6133 48.1502 18.6903 48.1129 18.7579 48.0618C18.8254 48.0107 18.8823 47.9467 18.9251 47.8737C18.968 47.8006 18.996 47.7198 19.0077 47.6359C19.0193 47.5519 19.0143 47.4665 18.9929 47.3846C18.9716 47.3026 18.9343 47.2256 18.8832 47.158C18.8321 47.0905 18.7681 47.0336 18.6951 46.9908V46.9911Z" fill="white"/>
<path d="M16.9404 44.5468C17.0735 44.5469 17.2032 44.5059 17.3121 44.4293C17.4209 44.3528 17.5034 44.2445 17.5482 44.1193C17.5931 43.9941 17.5982 43.8581 17.5628 43.7299C17.5273 43.6016 17.4532 43.4875 17.3504 43.4031C16.3472 42.5785 15.4928 41.6002 15.478 41.5836C15.4225 41.5196 15.3549 41.4672 15.2791 41.4293C15.2033 41.3915 15.1208 41.3689 15.0363 41.3629C14.9518 41.357 14.8669 41.3677 14.7866 41.3945C14.7062 41.4213 14.6319 41.4637 14.568 41.5193C14.504 41.5748 14.4516 41.6424 14.4137 41.7182C14.3758 41.794 14.3533 41.8765 14.3473 41.961C14.3413 42.0455 14.3521 42.1303 14.3789 42.2107C14.4057 42.2911 14.4481 42.3654 14.5036 42.4293C14.5414 42.4725 15.4377 43.5013 16.5312 44.3999C16.6464 44.4949 16.7911 44.5468 16.9404 44.5468V44.5468Z" fill="white"/>
<path d="M18.7889 43.4393C18.8122 43.4601 19.3806 43.9513 20.6065 44.6713C20.7541 44.7579 20.93 44.7824 21.0956 44.7393C21.2612 44.6961 21.4029 44.589 21.4895 44.4414C21.5761 44.2938 21.6005 44.1179 21.5574 43.9523C21.5143 43.7867 21.4072 43.645 21.2596 43.5584C20.1524 42.9088 19.641 42.4704 19.6362 42.4662C19.5072 42.3539 19.3388 42.2974 19.1681 42.3092C18.9974 42.3209 18.8384 42.4001 18.726 42.5291C18.6136 42.6582 18.5571 42.8265 18.5689 42.9972C18.5807 43.1679 18.6598 43.327 18.7889 43.4393V43.4393Z" fill="white"/>
<defs>
<radialGradient id="paint0_radial" cx="0" cy="0" r="1" gradientUnits="userSpaceOnUse" gradientTransform="translate(26.8173 25.7315) scale(41.4442)">
<stop stop-color="#3EED58"/>
<stop offset="0.68" stop-color="#26BC34"/>
<stop offset="1" stop-color="#00AA10"/>
</radialGradient>
</defs>
</svg>
