<?xml version="1.0" encoding="UTF-8"?>
<!DOCTYPE svg PUBLIC "-//W3C//DTD SVG 1.1//EN" "http://www.w3.org/Graphics/SVG/1.1/DTD/svg11.dtd">
<!-- Creator: CorelDRAW 2018 (64-Bit Evaluation Version) -->
<svg xmlns="http://www.w3.org/2000/svg" xml:space="preserve" width="64px" height="64px" version="1.1" style="shape-rendering:geometricPrecision; text-rendering:geometricPrecision; image-rendering:optimizeQuality; fill-rule:evenodd; clip-rule:evenodd"
viewBox="0 0 64 64"
 xmlns:xlink="http://www.w3.org/1999/xlink">
 <defs>
  <style type="text/css">
   <![CDATA[
    .fil0 {fill:none}
    .fil5 {fill:#50AF95}
    .fil7 {fill:#A6D6C9}
    .fil6 {fill:white}
    .fil2 {fill:url(#id0)}
    .fil1 {fill:url(#id1)}
    .fil3 {fill:url(#id2)}
    .fil4 {fill:url(#id3)}
   ]]>
  </style>
  <linearGradient id="id0" gradientUnits="userSpaceOnUse" x1="51.593" y1="17.496" x2="42.905" y2="53.26">
   <stop offset="0" style="stop-opacity:1; stop-color:#FE6E98"/>
   <stop offset="1" style="stop-opacity:1; stop-color:#FE8366"/>
  </linearGradient>
  <linearGradient id="id1" gradientUnits="userSpaceOnUse" xlink:href="#id0" x1="16.858" y1="53.81" x2="30.744" y2="9.045">
  </linearGradient>
  <linearGradient id="id2" gradientUnits="userSpaceOnUse" xlink:href="#id0" x1="37.782" y1="38.847" x2="42.043" y2="25.111">
  </linearGradient>
  <linearGradient id="id3" gradientUnits="userSpaceOnUse" xlink:href="#id0" x1="48.44" y1="27.705" x2="45.774" y2="38.679">
  </linearGradient>
 </defs>
 <g id="Layer_x0020_1">
  <metadata id="CorelCorpID_0Corel-Layer"/>
  <g id="_2618601874512">
   <rect class="fil0" x="-0.001" y="-0.001" width="64.002" height="64.002"/>
   <g>
    <path class="fil1" d="M32.176 55.723l-8.104 0 -0.053 0c-6.522,0 -12.448,-2.666 -16.741,-6.959 -4.294,-4.294 -6.959,-10.22 -6.959,-16.741 0,-6.522 2.665,-12.449 6.959,-16.742 4.293,-4.294 10.219,-6.959 16.741,-6.959l0.053 0 3.513 0 -0.056 -3.258 9.34 7.416 -9.09 7.217 -0.055 -3.202 -3.652 0 -0.053 0c-4.265,0 -8.146,1.748 -10.963,4.564 -2.816,2.816 -4.564,6.698 -4.564,10.963 0,4.266 1.748,8.147 4.564,10.964 2.817,2.816 6.698,4.564 10.963,4.564l0.053 0 7.81 0 -4.999 3.97 5.293 4.203z"/>
    <path class="fil2" d="M39.928 16.495l-7.111 0 5.055 -4.015 -5.237 -4.158 7.293 0 0.053 0c6.522,0 12.448,2.665 16.741,6.959 4.294,4.293 6.959,10.22 6.959,16.742 0,6.521 -2.665,12.447 -6.959,16.741 -4.293,4.293 -10.219,6.959 -16.741,6.959l-0.053 0 -2.757 0 0.054 3.213 -9.338 -7.416 9.089 -7.217 0.056 3.247 2.896 0 0.053 0c4.265,0 8.146,-1.748 10.963,-4.564 2.816,-2.817 4.564,-6.698 4.564,-10.964 0,-4.265 -1.748,-8.147 -4.564,-10.963 -2.817,-2.816 -6.698,-4.564 -10.963,-4.564l-0.053 0z"/>
   </g>
   <g>
    <g>
     <path class="fil3" d="M42.481 39.434l-2.486 0 -0.016 0c-2.001,0 -3.82,-0.818 -5.137,-2.135 -1.318,-1.318 -2.135,-3.136 -2.135,-5.137 0,-2.001 0.817,-3.82 2.135,-5.137 1.317,-1.317 3.136,-2.135 5.137,-2.135l0.016 0 1.078 0 -0.017 -1 2.866 2.275 -2.789 2.215 -0.017 -0.982 -1.121 0 -0.016 0c-1.309,0 -2.5,0.536 -3.364,1.4 -0.864,0.864 -1.401,2.055 -1.401,3.363 0,1.31 0.537,2.5 1.401,3.365 0.864,0.864 2.055,1.4 3.364,1.4l0.016 0 2.397 0 -1.534 1.218 1.623 1.29z"/>
     <path class="fil4" d="M44.86 27.398l-2.182 0 1.551 -1.233 -1.606 -1.275 2.237 0 0.017 0c2.001,0 3.819,0.818 5.137,2.135 1.317,1.317 2.135,3.136 2.135,5.137 0,2.001 -0.818,3.819 -2.135,5.137 -1.318,1.317 -3.136,2.135 -5.137,2.135l-0.017 0 -0.846 0 0.017 0.986 -2.865 -2.276 2.789 -2.214 0.017 0.996 0.888 0 0.017 0c1.308,0 2.499,-0.536 3.364,-1.4 0.863,-0.865 1.4,-2.055 1.4,-3.365 0,-1.308 -0.537,-2.499 -1.4,-3.363 -0.865,-0.864 -2.056,-1.4 -3.364,-1.4l-0.017 0z"/>
    </g>
    <g>
     <path class="fil5" d="M16.457 26.547c-0.002,0.003 -0.005,0.008 -0.006,0.011l-0.011 2.033 3.066 0 0 1.326c-0.842,0.044 -1.687,0.12 -2.486,0.277 -0.551,0.109 -1.84,0.411 -1.855,0.911 -0.016,0.501 1.303,0.817 1.841,0.922 0.808,0.159 1.649,0.236 2.492,0.28l0.006 4.278 2.151 0 0.049 0 0 -4.289 0.06 0.002c0.417,0.048 1.99,-0.175 2.46,-0.272 2.44,-0.501 2.475,-1.315 0.014,-1.824 -0.489,-0.102 -2.013,-0.311 -2.471,-0.278 -0.033,-0.02 -0.031,-0.007 -0.042,-0.051l-0.001 -1.282c0.013,0 3.027,0.015 3.038,-0.011 0.002,-0.004 0.008,-0.004 0.011,-0.006l0 -2.027 -8.316 0zm4.233 13.148c-0.052,0.016 -0.097,0.016 -0.149,0 -0.074,-0.089 -0.176,-0.162 -0.258,-0.238 -0.045,-0.043 -0.071,-0.084 -0.115,-0.127 -0.142,-0.14 -0.232,-0.194 -0.39,-0.372 -0.077,-0.085 -0.185,-0.168 -0.272,-0.248l-0.52 -0.504c-0.085,-0.103 -0.646,-0.607 -0.782,-0.741 -0.111,-0.11 -0.107,-0.125 -0.261,-0.259 -0.163,-0.141 -0.153,-0.155 -0.253,-0.249 -0.094,-0.089 -0.178,-0.159 -0.274,-0.247 -0.048,-0.044 -0.069,-0.079 -0.116,-0.126 -0.134,-0.138 -0.259,-0.224 -0.399,-0.381 -0.073,-0.082 -0.175,-0.166 -0.261,-0.241 -0.092,-0.08 -0.172,-0.175 -0.26,-0.259 -0.087,-0.082 -0.187,-0.153 -0.261,-0.241 -0.139,-0.165 -0.255,-0.239 -0.393,-0.371l-1.435 -1.388c-0.088,-0.082 -0.181,-0.156 -0.262,-0.241l-2.088 -2.001c-0.142,-0.128 -0.093,-0.165 -0.008,-0.342 0.111,-0.236 0.212,-0.458 0.329,-0.693 0.227,-0.46 0.434,-0.928 0.658,-1.387 0.448,-0.915 0.887,-1.847 1.32,-2.769 0.216,-0.462 0.444,-0.921 0.659,-1.384 0.229,-0.492 0.123,-0.422 0.605,-0.422l10.205 0c0.497,0 0.394,-0.067 0.617,0.41l1.319 2.768c0.216,0.464 0.431,0.926 0.66,1.385l0.987 2.08c0.133,0.284 0.156,0.21 -0.257,0.586 -0.328,0.3 -0.708,0.701 -1.04,1.004l-1.827 1.742c-0.09,0.082 -0.172,0.175 -0.26,0.259 -0.089,0.085 -0.183,0.15 -0.261,0.242 -0.089,0.104 -0.167,0.171 -0.264,0.256 -0.151,0.132 -0.151,0.153 -0.253,0.249 -0.094,0.088 -0.182,0.16 -0.273,0.247l-0.777 0.747c-0.059,0.052 -0.072,0.071 -0.127,0.134 -0.04,0.044 -0.087,0.084 -0.133,0.126 -0.086,0.081 -0.187,0.153 -0.262,0.241 -0.094,0.111 -0.164,0.17 -0.264,0.256 -0.152,0.132 -0.156,0.161 -0.251,0.251 -0.094,0.087 -0.181,0.158 -0.274,0.246 -0.09,0.087 -0.1,0.12 -0.25,0.251l-0.526 0.497c-0.094,0.084 -0.167,0.176 -0.26,0.26l-1.043 0.994z"/>
     <path class="fil6" d="M19.506 30.073c-0.934,0.041 -2.59,0.177 -3.443,0.567 -0.393,0.179 -0.534,0.434 -0.116,0.679 1.46,0.855 7.775,0.875 9.347,-0.007 0.447,-0.251 0.244,-0.503 -0.138,-0.677 -0.306,-0.14 -0.681,-0.231 -1.034,-0.302 -0.756,-0.152 -1.61,-0.228 -2.407,-0.259l0 1.489c-0.744,0.039 -1.457,0.046 -2.208,0l-0.001 -1.49zm5.267 -1.499l-3.066 0 0 1.352 0.06 -0.002c0.458,-0.033 1.982,0.176 2.471,0.278 2.461,0.509 2.426,1.323 -0.014,1.824 -0.47,0.097 -2.043,0.32 -2.46,0.272l-0.06 -0.002 0 4.289 -0.049 0 -2.151 0 -0.006 -4.278c-0.843,-0.044 -1.684,-0.121 -2.492,-0.28 -0.538,-0.105 -1.857,-0.421 -1.841,-0.922 0.015,-0.5 1.304,-0.802 1.855,-0.911 0.799,-0.157 1.644,-0.233 2.486,-0.277l0 -1.326c-0.048,-0.03 -0.132,-0.017 -0.191,-0.017l-2.858 0 0 -2.027 8.316 0 0 2.027z"/>
     <path class="fil5" d="M19.506 30.073l0.001 1.49c0.751,0.046 1.464,0.039 2.208,0l0 -1.489c0.797,0.031 1.651,0.107 2.407,0.259 0.353,0.071 0.728,0.162 1.034,0.302 0.382,0.174 0.585,0.426 0.138,0.677 -1.572,0.882 -7.887,0.862 -9.347,0.007 -0.418,-0.245 -0.277,-0.5 0.116,-0.679 0.853,-0.39 2.509,-0.526 3.443,-0.567z"/>
     <path class="fil7" d="M21.767 29.924l-0.06 0.002 0 -1.352 3.066 0c-0.003,0.002 -0.009,0.002 -0.011,0.006 -0.011,0.026 -3.025,0.011 -3.038,0.011l0.001 1.282c0.011,0.044 0.009,0.031 0.042,0.051z"/>
     <path class="fil7" d="M19.506 28.591l-3.066 0 0.011 -2.033c0.001,-0.003 0.004,-0.008 0.006,-0.011l0 2.027 2.858 0c0.059,0 0.143,-0.013 0.191,0.017z"/>
    </g>
   </g>
  </g>
 </g>
</svg>
