<?xml version="1.0" encoding="UTF-8"?>
<!DOCTYPE svg PUBLIC "-//W3C//DTD SVG 1.1//EN" "http://www.w3.org/Graphics/SVG/1.1/DTD/svg11.dtd">
<!-- Creator: CorelDRAW 2018 (64-Bit Evaluation Version) -->
<svg xmlns="http://www.w3.org/2000/svg" xml:space="preserve" width="64px" height="64px" version="1.1" style="shape-rendering:geometricPrecision; text-rendering:geometricPrecision; image-rendering:optimizeQuality; fill-rule:evenodd; clip-rule:evenodd"
viewBox="0 0 64 64"
 xmlns:xlink="http://www.w3.org/1999/xlink">
 <defs>
  <style type="text/css">
   <![CDATA[
    .fil0 {fill:none}
    .fil8 {fill:#252211}
    .fil12 {fill:#4D411D}
    .fil13 {fill:#7A6732}
    .fil11 {fill:#816A2F}
    .fil3 {fill:#988430}
    .fil5 {fill:#BA9F33}
    .fil7 {fill:#D3AE4D}
    .fil10 {fill:#EAE3AD}
    .fil15 {fill:#EFB80A}
    .fil9 {fill:#F1E9B1}
    .fil6 {fill:#F3EBB4}
    .fil4 {fill:white}
    .fil14 {fill:#FFFFFE;fill-opacity:0.800000}
    .fil1 {fill:url(#id1)}
    .fil2 {fill:url(#id2)}
   ]]>
  </style>
      <clipPath id="id0">
       <path d="M14.375 37.651c0.481,0.661 0.958,1.173 1.571,1.695 2.559,2.18 5.165,2.075 5.499,2.206l1.105 0c0.129,-0.05 0.757,-0.088 0.975,-0.126 6.449,-1.112 9.497,-7.714 6.957,-13.313 -0.344,-0.759 -1.174,-1.98 -1.806,-2.561 -0.49,-0.451 -0.553,-0.558 -1.185,-1.016 -3.712,-2.693 -8.879,-2.278 -12.135,0.98 -3.249,3.252 -3.681,8.427 -0.981,12.135z"/>
      </clipPath>
  <linearGradient id="id1" gradientUnits="userSpaceOnUse" x1="16.858" y1="53.81" x2="30.744" y2="9.045">
   <stop offset="0" style="stop-opacity:1; stop-color:#FE6E98"/>
   <stop offset="1" style="stop-opacity:1; stop-color:#FE8366"/>
  </linearGradient>
  <linearGradient id="id2" gradientUnits="userSpaceOnUse" xlink:href="#id1" x1="51.593" y1="17.496" x2="42.905" y2="53.26">
  </linearGradient>
 </defs>
 <g id="Layer_x0020_1">
  <metadata id="CorelCorpID_0Corel-Layer"/>
  <g id="_2617474855760">
   <rect class="fil0" x="-0.001" y="-0.001" width="64.002" height="64.002"/>
   <path class="fil1" d="M32.176 55.723l-8.104 0 -0.053 0c-6.522,0 -12.448,-2.666 -16.741,-6.959 -4.294,-4.294 -6.959,-10.22 -6.959,-16.741 0,-6.522 2.665,-12.449 6.959,-16.742 4.293,-4.294 10.219,-6.959 16.741,-6.959l0.053 0 3.513 0 -0.056 -3.258 9.339 7.416 -9.089 7.217 -0.055 -3.202 -3.652 0 -0.053 0c-4.265,0 -8.146,1.748 -10.963,4.564 -2.816,2.816 -4.564,6.698 -4.564,10.963 0,4.266 1.748,8.147 4.564,10.964 2.817,2.816 6.698,4.564 10.963,4.564l0.053 0 7.81 0 -4.999 3.97 5.293 4.203z"/>
   <path class="fil2" d="M39.927 16.495l-7.11 0 5.055 -4.015 -5.237 -4.158 7.292 0 0.054 0c6.522,0 12.447,2.665 16.741,6.959 4.294,4.293 6.959,10.22 6.959,16.742 0,6.521 -2.665,12.447 -6.959,16.741 -4.294,4.293 -10.219,6.959 -16.741,6.959l-0.054 0 -2.756 0 0.054 3.213 -9.338 -7.416 9.089 -7.217 0.056 3.247 2.895 0 0.054 0c4.265,0 8.146,-1.748 10.963,-4.564 2.816,-2.817 4.564,-6.698 4.564,-10.964 0,-4.265 -1.748,-8.147 -4.564,-10.963 -2.817,-2.816 -6.698,-4.564 -10.963,-4.564l-0.054 0z"/>
   <g>
    <g>
     <path class="fil3" d="M14.003 37.92c0.505,0.692 1.004,1.229 1.648,1.777 0.906,0.772 1.817,1.27 2.64,1.598 3.491,1.388 7.544,0.719 10.359,-1.826 3.101,-2.804 4.113,-7.438 2.245,-11.554 -0.36,-0.795 -1.23,-2.077 -1.893,-2.685 -0.514,-0.473 -0.581,-0.585 -1.243,-1.066 -3.894,-2.824 -9.312,-2.389 -12.726,1.029 -3.408,3.409 -3.861,8.837 -1.03,12.727z"/>
     <path class="fil4" d="M14.455 32.157c0.082,0.128 1.65,1.669 1.713,1.701 0.214,-0.208 1.605,-1.576 1.673,-1.701 -0.113,-0.204 -1.397,-1.369 -1.676,-1.7 -0.066,0.029 -1.637,1.583 -1.71,1.7z"/>
     <path class="fil5" d="M14.375 37.651c0.481,0.661 0.958,1.173 1.571,1.695 2.559,2.18 5.165,2.075 5.499,2.206l1.105 0c0.129,-0.05 0.757,-0.088 0.975,-0.126 6.449,-1.112 9.497,-7.714 6.957,-13.313 -0.344,-0.759 -1.174,-1.98 -1.806,-2.561 -0.49,-0.451 -0.553,-0.558 -1.185,-1.016 -3.712,-2.693 -8.879,-2.278 -12.135,0.98 -3.249,3.252 -3.681,8.427 -0.981,12.135z"/>
     <g style="clip-path:url(#id0)">
      <g>
       <g>
        <path id="1" class="fil6" d="M15.88 30.606c-0.103,0.36 -0.15,0.418 -0.227,0.674 -0.232,0.777 -0.238,1.645 -0.107,2.441 0.168,1.014 0.573,1.553 0.587,1.713 0.021,0.207 -0.05,0.566 -0.144,0.761 -0.058,0.12 -0.122,0.187 -0.162,0.292 0.265,0.226 0.168,0.433 0.077,0.619 -0.171,0.354 -0.029,0.441 -0.085,0.788 -0.038,0.242 -0.079,0.498 -0.164,0.706 -0.074,0.18 -0.208,0.442 -0.253,0.618 0.314,0.426 1.833,1.609 2.176,1.685 0.164,-0.045 0.439,-0.345 0.563,-0.463 0.2,-0.192 0.275,-0.299 0.407,-0.614 0.152,-0.361 0.06,-0.53 0.026,-0.891 -0.033,-0.347 -0.06,-0.529 -0.199,-0.823 -0.076,-0.163 -0.116,-0.178 -0.254,-0.267 -0.187,-0.12 -0.466,-0.333 -0.642,-0.404 -0.144,-0.057 -0.221,-0.072 -0.337,-0.161 -0.257,-0.197 -0.614,-0.874 -0.72,-1.322 0.186,0.16 0.196,0.215 0.311,0.337 0.298,0.311 0.815,0.498 1.156,0.761 0.143,0.109 0.741,0.257 0.963,0.304 0.871,0.183 1.352,-0.084 2.249,-0.163 0.366,-0.032 0.714,-0.108 1.039,-0.227 0.266,-0.097 1.06,-0.452 1.31,-0.606 0.113,-0.07 0.262,-0.192 0.381,-0.23l-0.323 0.386c-0.252,0.279 -0.998,0.648 -1.351,0.792 -0.69,0.282 -0.31,0.053 -0.948,0.471l-0.423 0.297c-0.091,0.071 -0.121,0.074 -0.221,0.13 -0.064,0.035 -0.143,0.096 -0.206,0.141 -0.461,0.327 -0.366,0.244 -0.81,0.608 -0.254,0.207 -0.416,0.515 -0.616,0.803 -0.651,0.937 -0.172,1.276 0.925,1.319 -0.161,0.46 -0.424,0.496 -0.486,0.629 0.21,0.041 0.436,0.124 0.657,0.175 1.76,0.406 3.256,0.322 4.976,-0.166 0.113,-0.201 0.381,-0.312 0.488,-0.375 0.754,-0.448 0.561,-0.29 1.221,-0.894 0.115,-0.105 0.301,-0.292 0.392,-0.43 0.177,-0.271 0.277,-0.216 0.641,-0.628 0.68,-0.773 0.568,-0.845 0.718,-1.798 0.037,-0.239 0.077,-0.529 0.036,-0.77 -0.051,-0.285 -0.124,-0.428 -0.454,-0.398 -0.229,0.021 -0.405,0.136 -0.601,0.225 -0.179,0.081 -0.43,0.127 -0.636,0.211 -0.267,0.111 -1.634,0.719 -1.79,0.741 0.084,-0.214 0.696,-0.618 0.487,-0.947 -0.087,-0.042 -0.247,0.041 -0.327,0.083 0.036,-0.246 0.14,-0.356 0.217,-0.593 0.108,-0.328 0.238,-0.402 0.266,-0.53l-0.744 0.217c0.049,-0.105 0.146,-0.218 0.217,-0.322 0.354,-0.516 0.658,-1.18 0.917,-1.746 0.115,-0.252 0.241,-0.456 0.335,-0.736 0.1,-0.298 0.082,-0.624 0.13,-0.937 0.027,-0.172 -0.004,-0.328 -0.05,-0.479 -0.041,-0.13 -0.122,-0.283 -0.145,-0.383 -0.067,-0.305 -0.057,-0.61 -0.246,-0.819 -0.176,-0.195 -0.582,-0.159 -0.892,-0.148 -0.345,0.011 -0.705,0.002 -1.047,0.009 -1.011,0.019 -0.765,0.4 -1.336,0.814 -0.953,0.69 -1.218,0.385 -1.555,0.586 -0.528,0.314 -0.639,0.927 -0.613,1.522 0.016,0.389 0.243,0.549 0.322,0.723l0.021 0.017c0.146,0.435 -0.541,0.771 -0.865,0.65 -0.246,-0.091 -0.349,-0.189 -0.646,-0.064 -0.338,0.142 -0.363,-0.07 -0.651,0.045 -0.279,0.111 -0.237,0.194 -0.625,0.204 -0.179,0.006 -0.207,0.014 -0.33,-0.074l-0.463 -0.334c-0.079,-0.052 -0.175,-0.091 -0.242,-0.155 -0.219,-0.208 -0.054,-0.361 -0.209,-0.608l0.008 -0.012c-0.058,-0.073 -0.189,-0.267 -0.226,-0.347 -0.068,-0.147 -0.051,-0.32 -0.024,-0.485 0.015,-0.093 0.185,-0.913 0.191,-0.923 0.064,-0.454 0.298,-0.636 0.798,-0.635 0.04,-0.169 -0.197,-0.325 -0.301,-0.389 -0.103,-0.065 -0.139,-0.065 -0.203,-0.17 -0.178,-0.289 -0.162,-0.7 -0.018,-0.851 0.093,-0.099 0.344,-0.208 0.164,-0.414 -0.059,-0.069 -0.167,-0.097 -0.278,-0.073 -0.12,0.028 -0.131,0.095 -0.189,0.16 -0.094,0.106 -0.274,0.183 -0.396,0.301 -0.134,0.127 -0.453,0.522 -0.529,0.714l-0.063 0.132z"/>
        <path class="fil7" d="M22.986 30.135c-0.026,0.339 -0.493,0.726 -0.859,0.775 -0.614,0.081 -1.415,-0.017 -0.955,-0.757 0.136,-0.218 0.392,-0.505 0.701,-0.523 0.471,-0.028 0.817,0.303 1.113,0.505zm-4.802 -1.146c0.339,-0.101 0.59,0.21 0.577,0.521 -0.014,0.364 -0.224,0.471 -0.511,0.633 -0.326,0.185 -0.581,-0.164 -0.571,-0.483 0.006,-0.196 0.181,-0.574 0.505,-0.671zm-2.304 1.617l0.063 -0.132c0.076,-0.192 0.395,-0.587 0.529,-0.714 0.122,-0.118 0.302,-0.195 0.396,-0.301 0.058,-0.065 0.069,-0.132 0.189,-0.16 0.111,-0.024 0.219,0.004 0.278,0.073 0.18,0.206 -0.071,0.315 -0.164,0.414 -0.144,0.151 -0.16,0.562 0.018,0.851 0.064,0.105 0.1,0.105 0.203,0.17 0.104,0.064 0.341,0.22 0.301,0.389 0.474,0.01 1.683,0.321 1.15,0.834 -0.326,0.313 -0.199,0.305 -0.554,0.542 -0.59,0.392 -0.335,0.3 -0.557,0.536 -0.239,-0.104 -0.239,-0.291 -0.543,-0.504 -0.143,-0.1 -0.169,-0.113 -0.246,-0.302 -0.072,-0.175 -0.068,-0.272 -0.048,-0.471 -0.006,0.01 -0.176,0.83 -0.191,0.923 -0.027,0.165 -0.044,0.338 0.024,0.485 0.037,0.08 0.168,0.274 0.226,0.347 0.201,-0.143 0.786,-0.077 1.031,-0.014 0.323,0.083 0.618,0.206 0.908,0.315 0.32,0.121 0.515,0.319 0.928,0.218 0.254,-0.062 0.832,-0.146 1.087,-0.158l0.048 -0.03c-0.079,-0.174 -0.306,-0.334 -0.322,-0.723 -0.026,-0.595 0.085,-1.208 0.613,-1.522 0.337,-0.201 0.602,0.104 1.555,-0.586 0.571,-0.414 0.325,-0.795 1.336,-0.814 0.342,-0.007 0.702,0.002 1.047,-0.009 0.31,-0.011 0.716,-0.047 0.892,0.148 0.189,0.209 0.179,0.514 0.246,0.819 0.023,0.1 0.104,0.253 0.145,0.383 0.046,0.151 0.077,0.307 0.05,0.479 -0.048,0.313 -0.03,0.639 -0.13,0.937 -0.094,0.28 -0.22,0.484 -0.335,0.736 -0.259,0.566 -0.563,1.23 -0.917,1.746 -0.071,0.104 -0.168,0.217 -0.217,0.322l0.744 -0.217c-0.028,0.128 -0.158,0.202 -0.266,0.53 -0.077,0.237 -0.181,0.347 -0.217,0.593 0.08,-0.042 0.24,-0.125 0.327,-0.083 0.209,0.329 -0.403,0.733 -0.487,0.947 0.156,-0.022 1.523,-0.63 1.79,-0.741 0.206,-0.084 0.457,-0.13 0.636,-0.211 0.196,-0.089 0.372,-0.204 0.601,-0.225 0.33,-0.03 0.403,0.113 0.454,0.398 0.041,0.241 0.001,0.531 -0.036,0.77 -0.15,0.953 -0.038,1.025 -0.718,1.798 -0.364,0.412 -0.464,0.357 -0.641,0.628 -0.091,0.138 -0.277,0.325 -0.392,0.43 -0.66,0.604 -0.467,0.446 -1.221,0.894 -0.107,0.063 -0.375,0.174 -0.488,0.375 0.796,-0.183 1.906,-0.79 2.477,-1.175 0.567,-0.382 0.803,-0.601 1.255,-1.008 0.369,-0.333 0.314,-0.287 0.302,-0.592 -0.027,-0.625 -0.034,-1.616 -0.113,-2.144 -0.018,-0.122 -0.059,-0.272 -0.072,-0.379 -0.012,-0.1 0.051,-0.22 0.047,-0.388 -0.009,-0.299 -0.029,-0.569 -0.044,-0.867 -0.067,-1.286 -0.597,-1.829 -0.677,-2.923 -0.088,-0.015 -0.037,0.004 -0.057,-0.049 -0.055,-0.255 -0.209,-0.534 -0.292,-0.8 -0.1,-0.318 -0.116,-0.614 -0.137,-0.962 -0.063,-1.06 -0.168,-0.929 -0.467,-1.719 -0.05,-0.132 -0.102,-0.264 -0.152,-0.395 -0.074,-0.189 -0.126,-0.206 -0.074,-0.426 0.07,-0.296 0.14,-0.627 0.141,-0.944 0,-0.576 -0.104,-1.374 -0.314,-1.843 -0.142,-0.319 -0.345,-0.439 -0.698,-0.409 -0.385,0.033 -0.433,0.233 -0.51,0.322l-0.273 0.274c-0.353,0.383 -0.665,0.668 -0.945,0.972 -0.12,0.129 -0.118,0.164 -0.364,0.184 -0.356,0.029 -0.084,-0.163 -1.466,0.031 -1.09,0.152 -0.78,0.062 -1.912,-0.068l0.003 -0.069 0.023 -0.097c-0.374,-0.146 -0.508,-0.785 -0.6,-1.044 -0.114,-0.311 -0.478,-0.715 -0.763,-0.879 -0.278,-0.16 -0.419,-0.081 -0.468,0.224 -0.1,0.632 -0.017,1.462 -0.236,2.231 -0.119,0.415 -0.423,0.68 -0.874,0.77 -0.567,0.112 -0.757,0.271 -1.015,0.628 -0.237,0.33 -0.416,0.622 -0.558,1.085 -0.113,0.37 -0.255,0.945 -0.292,1.346z"/>
        <path class="fil7" d="M17.578 40.903c0.222,0.247 1.385,0.637 1.794,0.807 0.062,-0.133 0.325,-0.169 0.486,-0.629 -1.097,-0.043 -1.576,-0.382 -0.925,-1.319 0.2,-0.288 0.362,-0.596 0.616,-0.803 0.444,-0.364 0.349,-0.281 0.81,-0.608 0.063,-0.045 0.142,-0.106 0.206,-0.141 0.1,-0.056 0.13,-0.059 0.221,-0.13l0.423 -0.297c0.638,-0.418 0.258,-0.189 0.948,-0.471 0.353,-0.144 1.099,-0.513 1.351,-0.792l0.323 -0.386c-0.119,0.038 -0.268,0.16 -0.381,0.23 -0.25,0.154 -1.044,0.509 -1.31,0.606 -0.325,0.119 -0.673,0.195 -1.039,0.227 -0.897,0.079 -1.378,0.346 -2.249,0.163 -0.222,-0.047 -0.82,-0.195 -0.963,-0.304 -0.341,-0.263 -0.858,-0.45 -1.156,-0.761 -0.115,-0.122 -0.125,-0.177 -0.311,-0.337 0.106,0.448 0.463,1.125 0.72,1.322 0.116,0.089 0.193,0.104 0.337,0.161 0.176,0.071 0.455,0.284 0.642,0.404 0.138,0.089 0.178,0.104 0.254,0.267 0.139,0.294 0.166,0.476 0.199,0.823 0.034,0.361 0.126,0.53 -0.026,0.891 -0.132,0.315 -0.207,0.422 -0.407,0.614 -0.124,0.118 -0.399,0.418 -0.563,0.463z"/>
        <path class="fil8" d="M16.895 31.831c-0.02,0.199 -0.024,0.296 0.048,0.471 0.077,0.189 0.103,0.202 0.246,0.302 0.304,0.213 0.304,0.4 0.543,0.504 0.222,-0.236 -0.033,-0.144 0.557,-0.536 0.355,-0.237 0.228,-0.229 0.554,-0.542 0.533,-0.513 -0.676,-0.824 -1.15,-0.834 -0.5,-0.001 -0.734,0.181 -0.798,0.635z"/>
        <path class="fil7" d="M20.977 33.934c-0.033,0.017 -0.027,0.008 -0.058,0.031 -0.566,0.393 -1.316,0.295 -1.972,0.092 -0.49,-0.151 -1.016,-0.207 -1.519,-0.325 -0.166,-0.039 -0.326,-0.097 -0.482,-0.134 0.155,0.247 -0.01,0.4 0.209,0.608 0.067,0.064 0.163,0.103 0.242,0.155l0.463 0.334c0.123,0.088 0.151,0.08 0.33,0.074 0.388,-0.01 0.346,-0.093 0.625,-0.204 0.288,-0.115 0.313,0.097 0.651,-0.045 0.297,-0.125 0.4,-0.027 0.646,0.064 0.324,0.121 1.011,-0.215 0.865,-0.65z"/>
        <path class="fil8" d="M22.4 30.33c-0.088,-0.014 -0.072,-0.006 -0.114,-0.073 0.005,-0.002 0.028,-0.067 0.094,-0.011 0.038,0.032 0.017,0.041 0.02,0.084zm-0.19 -0.258c0,-0.094 -0.01,-0.071 0.082,-0.077l0.004 0.095 -0.086 -0.018zm-0.101 0.737c-0.19,0.019 -0.479,0.055 -0.649,-0.037 -0.153,-0.082 -0.21,-0.27 -0.14,-0.47 0.148,-0.421 0.647,-0.594 0.843,-0.482 -0.005,0.174 -0.222,0.28 -0.363,0.337 -0.155,0.064 -0.059,0.352 0.008,0.441 0.093,0.125 0.236,0.123 0.301,0.211zm0.877 -0.674c-0.296,-0.202 -0.642,-0.533 -1.113,-0.505 -0.309,0.018 -0.565,0.305 -0.701,0.523 -0.46,0.74 0.341,0.838 0.955,0.757 0.366,-0.049 0.833,-0.436 0.859,-0.775z"/>
        <path class="fil8" d="M18.522 29.431c-0.022,-0.172 0.033,-0.188 0.183,-0.154l0.006 0.142c-0.103,0.078 -0.092,0.083 -0.189,0.012zm-0.531 0.478c-0.205,0.004 -0.22,-0.32 -0.151,-0.474 0.045,-0.097 0.268,-0.266 0.425,-0.267 0.031,0.046 0.021,0.052 0.029,0.066 0.06,0.105 0.058,0.032 0.097,0.127 -0.106,0.082 -0.082,-0.002 -0.191,0.061 -0.216,0.127 -0.075,0.335 -0.209,0.487zm0.193 -0.92c-0.324,0.097 -0.499,0.475 -0.505,0.671 -0.01,0.319 0.245,0.668 0.571,0.483 0.287,-0.162 0.497,-0.269 0.511,-0.633 0.013,-0.311 -0.238,-0.622 -0.577,-0.521z"/>
        <path class="fil8" d="M16.954 33.586l-0.008 0.012c0.156,0.037 0.316,0.095 0.482,0.134 0.503,0.118 1.029,0.174 1.519,0.325 0.656,0.203 1.406,0.301 1.972,-0.092l-0.011 -0.018c-0.255,0.012 -0.833,0.096 -1.087,0.158 -0.413,0.101 -0.608,-0.097 -0.928,-0.218 -0.29,-0.109 -0.585,-0.232 -0.908,-0.315 -0.245,-0.063 -0.83,-0.129 -1.031,0.014z"/>
        <path class="fil6" d="M22.109 30.809c-0.065,-0.088 -0.208,-0.086 -0.301,-0.211 -0.067,-0.089 -0.163,-0.377 -0.008,-0.441 0.141,-0.057 0.358,-0.163 0.363,-0.337 -0.196,-0.112 -0.695,0.061 -0.843,0.482 -0.07,0.2 -0.013,0.388 0.14,0.47 0.17,0.092 0.459,0.056 0.649,0.037z"/>
        <path class="fil6" d="M17.991 29.909c0.134,-0.152 -0.007,-0.36 0.209,-0.487 0.109,-0.063 0.085,0.021 0.191,-0.061 -0.039,-0.095 -0.037,-0.022 -0.097,-0.127 -0.008,-0.014 0.002,-0.02 -0.029,-0.066 -0.157,0.001 -0.38,0.17 -0.425,0.267 -0.069,0.154 -0.054,0.478 0.151,0.474z"/>
        <path class="fil6" d="M18.522 29.431c0.097,0.071 0.086,0.066 0.189,-0.012l-0.006 -0.142c-0.15,-0.034 -0.205,-0.018 -0.183,0.154z"/>
        <path class="fil9" d="M22.286 30.257c0.042,0.067 0.026,0.059 0.114,0.073 -0.003,-0.043 0.018,-0.052 -0.02,-0.084 -0.066,-0.056 -0.089,0.009 -0.094,0.011z"/>
        <path class="fil10" d="M22.21 30.072l0.086 0.018 -0.004 -0.095c-0.092,0.006 -0.082,-0.017 -0.082,0.077z"/>
        <path class="fil11" d="M20.663 26.342l0.07 -0.039c-0.03,-0.099 -0.003,-0.013 -0.047,-0.058l-0.023 0.097z"/>
        <path class="fil12" d="M28.18 32.243c-0.03,-0.071 0.01,-0.031 -0.057,-0.049 0.02,0.053 -0.031,0.034 0.057,0.049z"/>
        <path class="fil13" d="M20.919 33.965c0.031,-0.023 0.025,-0.014 0.058,-0.031l-0.021 -0.017 -0.048 0.03 0.011 0.018z"/>
       </g>
      </g>
     </g>
     <path class="fil0" d="M14.375 37.651c0.481,0.661 0.958,1.173 1.571,1.695 2.559,2.18 5.165,2.075 5.499,2.206l1.105 0c0.129,-0.05 0.757,-0.088 0.975,-0.126 6.449,-1.112 9.497,-7.714 6.957,-13.313 -0.344,-0.759 -1.174,-1.98 -1.806,-2.561 -0.49,-0.451 -0.553,-0.558 -1.185,-1.016 -3.712,-2.693 -8.879,-2.278 -12.135,0.98 -3.249,3.252 -3.681,8.427 -0.981,12.135z"/>
     <path class="fil14" d="M21.685 35.172l0 -6.163c0.358,-0.05 1.12,-0.052 1.454,0.034 0.325,0.084 0.654,0.454 0.821,0.694 0.445,0.638 0.638,1.38 0.704,2.328 0.075,1.07 -0.158,1.731 -0.641,2.393 -0.207,0.283 -0.441,0.535 -0.858,0.657 -0.331,0.096 -1.129,0.117 -1.48,0.057zm-4.802 -6.178l1.572 0.004 0.007 6.189 -1.567 0 -0.013 2.702c1.303,0.111 2.877,0.038 4.217,0.038 1.346,0 2.788,0.113 4.002,-0.305 2.025,-0.695 3.197,-2.7 3.166,-5.433 -0.032,-2.805 -1.264,-4.561 -3.193,-5.406 -1.262,-0.553 -2.424,-0.397 -3.893,-0.397 -1.417,0 -2.878,-0.035 -4.289,0.004l-0.009 2.604z"/>
    </g>
    <path class="fil15" d="M34.239 31.445l0 1.42c0.156,0.352 0.05,2.567 1.86,5.052 0.504,0.693 1.003,1.23 1.647,1.778 2.684,2.286 5.416,2.175 5.767,2.313l1.159 0c0.135,-0.053 0.794,-0.092 1.023,-0.132 4.206,-0.725 7.372,-3.881 8.113,-8.085 0.041,-0.235 0.084,-0.92 0.137,-1.056l0 -1.159c-0.116,-0.296 0.019,-1.518 -0.955,-3.664 -0.36,-0.795 -1.23,-2.076 -1.893,-2.685 -0.514,-0.473 -0.581,-0.585 -1.243,-1.065 -2.504,-1.817 -4.695,-1.702 -5.051,-1.86l-1.421 0c-0.416,0.185 -3.407,0.039 -6.254,2.888 -2.85,2.851 -2.707,5.849 -2.889,6.255z"/>
    <path class="fil4" d="M39.475 29.209c0.052,0.114 0.694,0.721 0.835,0.862l0.862 0.857 2.185 -2.174c0.242,-0.242 0.487,-0.506 0.736,-0.73 0.243,0.168 2.576,2.637 2.92,2.904 0.224,-0.177 1.676,-1.667 1.703,-1.725l-1.152 -1.142c-0.272,-0.273 -3.327,-3.379 -3.471,-3.453l-4.618 4.601z"/>
    <path class="fil4" d="M39.48 35.098l4.613 4.605c0.155,-0.083 3.642,-3.626 4.051,-4.035 0.149,-0.148 0.424,-0.457 0.573,-0.559 -0.05,-0.099 -1.559,-1.616 -1.703,-1.726 -0.218,0.179 -2.157,2.15 -2.565,2.558 -0.112,0.112 -0.238,0.264 -0.356,0.347 -0.374,-0.341 -1.06,-1.059 -1.457,-1.456 -0.207,-0.208 -1.334,-1.366 -1.466,-1.447l-1.69 1.713z"/>
    <path class="fil4" d="M36.55 32.155c0.082,0.128 1.65,1.669 1.713,1.701 0.214,-0.209 1.605,-1.576 1.673,-1.701 -0.113,-0.205 -1.397,-1.369 -1.676,-1.701 -0.066,0.029 -1.637,1.584 -1.71,1.701z"/>
    <path class="fil4" d="M48.254 32.155l1.672 1.699c0.14,-0.061 0.711,-0.681 0.868,-0.837 0.147,-0.147 0.769,-0.748 0.841,-0.862 -0.068,-0.108 -0.698,-0.718 -0.841,-0.861 -0.157,-0.156 -0.727,-0.775 -0.868,-0.84 -0.231,0.27 -0.567,0.574 -0.83,0.837 -0.163,0.162 -0.761,0.723 -0.842,0.864z"/>
    <polygon class="fil4" points="42.396,32.152 44.091,33.852 45.789,32.159 44.099,30.456 "/>
   </g>
  </g>
 </g>
</svg>
