<svg width="64" height="64" viewBox="0 0 64 64" fill="none" xmlns="http://www.w3.org/2000/svg">
<circle cx="32" cy="32" r="32" fill="#5F62A2"/>
<path d="M32 17.2188C23.9727 17.2188 17.4688 23.7812 17.4688 31.75C17.4688 39.7773 23.9727 46.2812 32 46.2812C39.9688 46.2812 46.5312 39.7773 46.5312 31.75C46.5312 23.7812 39.9688 17.2188 32 17.2188ZM32 43.4688C25.4961 43.4688 20.2812 38.2539 20.2812 31.75C20.2812 25.3047 25.4961 20.0312 32 20.0312C38.4453 20.0312 43.7188 25.3047 43.7188 31.75C43.7188 38.2539 38.4453 43.4688 32 43.4688ZM38.2695 28.5273C38.2695 25.5977 35.1641 23.3125 32.293 23.3125C29.5391 23.3125 27.7812 24.4844 26.4336 26.5352C26.1992 26.8281 26.2578 27.2383 26.5508 27.4727L28.1914 28.7031C28.4844 28.9375 28.9531 28.8789 29.1875 28.5859C30.0664 27.4727 30.7109 26.8281 32.0586 26.8281C33.1133 26.8281 34.4023 27.4727 34.4023 28.5273C34.4023 29.2891 33.7578 29.6406 32.7031 30.2266C31.5312 30.9297 29.9492 31.75 29.9492 33.8594V34.3281C29.9492 34.7383 30.2422 35.0312 30.6523 35.0312H33.2891C33.6992 35.0312 33.9922 34.7383 33.9922 34.3281V33.9766C33.9922 32.5117 38.2695 32.4531 38.2695 28.5273ZM34.4609 38.3125C34.4609 36.9648 33.3477 35.8516 32 35.8516C30.5938 35.8516 29.5391 36.9648 29.5391 38.3125C29.5391 39.7188 30.5938 40.7734 32 40.7734C33.3477 40.7734 34.4609 39.7188 34.4609 38.3125Z" fill="white"/>
</svg>
