<svg xmlns="http://www.w3.org/2000/svg" viewBox="0 0 19.27 19.06"><defs><style>.cls-1{fill:#87c123;stroke:#231916;stroke-miterlimit:10;stroke-width:0.74px;}.cls-2{fill:#241916;}.cls-3{fill:#231916;}.cls-4{fill:#fff;}</style></defs><title>Asset 1</title><g id="Layer_2" data-name="Layer 2"><g id="レイヤー_1" data-name="レイヤー 1"><path class="cls-1" d="M1.37,7.28a11.3,11.3,0,0,0-.84,5.09c.34,2.81,1.81,6,8.48,6.31,6.94.28,9.66-5,9.8-6.14s.43-4.73-1.82-6.1c-2.48-1.52-6.74-4.6-7.57-4.3A69.73,69.73,0,0,0,2,6.71Z"/><path class="cls-2" d="M10.92,13.19A1,1,0,0,1,10,14.25a1,1,0,0,1-.88-1.06,1,1,0,0,1,.88-1A1,1,0,0,1,10.92,13.19Z"/><path class="cls-3" d="M.06,1.77A2,2,0,0,1,1.3.43,31.49,31.49,0,0,1,7.44.23a2.69,2.69,0,0,1,1.24.87l1.11,0s.3-.84.87-.94a58.67,58.67,0,0,1,6-.17c.67.1,1.3.07,1.81.91s.23,3.05.17,4.42a2,2,0,0,1-1.95,2.05s-4.33.44-5.3.13a2.07,2.07,0,0,1-1.17-1.61c-.1-.6-.14-2.08-.14-2.08H8.68A11.15,11.15,0,0,1,8.31,6.3,2.08,2.08,0,0,1,7.07,7.61c-.57.13-5,.4-5.67,0A2.19,2.19,0,0,1,.06,6.1C-.08,5.3.06,1.77.06,1.77Z"/><path class="cls-4" d="M1,3.55s-.31-1.87.46-2.11a6.37,6.37,0,0,1,2.05-.07L1,4Z"/><path class="cls-4" d="M10.76,3.18s-.31-1.87.47-2.11a6.31,6.31,0,0,1,2-.07L10.82,3.62Z"/></g></g></svg>