<svg width="50" height="67" viewBox="0 0 50 67" fill="none" xmlns="http://www.w3.org/2000/svg">
<g clip-path="url(#clip0_1529_1270)">
<path d="M37.4999 46.6536C39.3202 45.6005 39.7825 42.7422 41.2603 41.2643C42.7382 39.7865 45.5963 39.3268 46.6496 37.5052C47.6887 35.7096 46.6712 33.0078 47.219 30.957C47.7473 28.9714 49.8827 27.1484 49.8827 25C49.8827 22.8516 47.634 21.026 47.1041 19.0456C46.5563 16.9948 47.5744 14.293 46.5357 12.4974C45.4828 10.6771 42.6256 10.2161 41.1477 8.73828C39.6698 7.26042 39.2089 4.40234 37.3886 3.34896C35.593 2.31003 32.8912 3.32764 30.8404 2.7793C28.9713 2.2487 27.1483 0 24.9999 0C22.8515 0 21.0285 2.2487 19.0494 2.77865C16.9921 3.32552 14.2968 2.30859 12.4973 3.34635C10.677 4.39974 10.216 7.25781 8.73818 8.73438C7.26162 10.2122 4.40224 10.6732 3.34885 12.4935C2.30979 14.2839 3.32802 16.9922 2.77984 19.0365C2.24859 21.0286 0 22.8516 0 25C0 27.1484 2.2487 28.974 2.77865 30.9544C3.32643 33.0052 2.30794 35.707 3.34649 37.5026C4.40094 39.3229 7.25771 39.7786 8.73427 41.263C10.2121 42.7409 10.6731 45.599 12.4947 46.6536C14.2903 47.6926 16.9908 46.6742 19.0416 47.2225C21.0285 47.7474 22.8515 50 24.9999 50C27.1483 50 28.9739 47.7513 30.9556 47.2214C33.0077 46.6797 35.703 47.6953 37.4999 46.6536ZM14.5832 25C14.5832 19.2357 19.246 14.5833 24.9999 14.5833C30.7538 14.5833 35.4166 19.2357 35.4166 25C35.4166 30.7513 30.7538 35.4167 24.9999 35.4167C19.246 35.4167 14.5832 30.7552 14.5832 25ZM0.223724 56.4062C-0.199453 57.4724 -0.00817714 58.6823 0.728281 59.5638C1.46474 60.4427 2.62021 60.8526 3.7387 60.6247L9.62281 59.4483L12.4132 64.9522C12.9504 66.0156 14.0103 66.6667 15.1952 66.6667C15.24 66.6667 15.2817 66.6651 15.3265 66.6631C16.5634 66.6143 17.6246 65.8712 18.0921 64.7256L22.4645 54.0381C15.471 53.4341 9.18323 50.3767 4.46969 45.7113L0.223724 56.4062ZM45.5207 45.7161C40.8137 50.3815 34.5246 53.4388 27.5259 54.043L31.8983 64.7305C32.3663 65.8759 33.427 66.6185 34.664 66.668C34.7134 66.5495 34.6483 66.6667 34.8046 66.6667C35.9887 66.6667 37.0481 66.0191 37.5845 64.9557L40.3749 59.4505L46.259 60.6269C47.378 60.8548 48.5338 60.4449 49.2694 59.566C50.0059 58.685 50.1972 57.4749 49.774 56.4085L45.5207 45.7161Z" fill="white"/>
<path d="M22.14 20.1C22.14 19.9267 22.2267 19.7533 22.4 19.58C22.5867 19.3933 22.8333 19.2267 23.14 19.08C23.4467 18.9333 23.8067 18.82 24.22 18.74C24.6333 18.6467 25.0733 18.6 25.54 18.6C26.8333 18.6 27.84 18.9133 28.56 19.54C29.2933 20.1667 29.66 21.0133 29.66 22.08C29.66 22.44 29.6133 22.8 29.52 23.16C29.4267 23.5067 29.2733 23.8667 29.06 24.24C28.8467 24.6 28.5667 24.98 28.22 25.38C27.8733 25.78 27.4533 26.2067 26.96 26.66L23.7 29.68H29.64C29.6933 29.7467 29.74 29.8333 29.78 29.94C29.82 30.0467 29.84 30.1733 29.84 30.32C29.84 30.7733 29.6333 31 29.22 31H22.16C21.8933 30.8133 21.76 30.5467 21.76 30.2C21.76 29.8133 21.92 29.4667 22.24 29.16L25.84 25.7C26.24 25.3133 26.58 24.96 26.86 24.64C27.14 24.32 27.36 24.02 27.52 23.74C27.6933 23.46 27.8133 23.1867 27.88 22.92C27.96 22.6533 28 22.38 28 22.1C28 21.46 27.7867 20.9467 27.36 20.56C26.9333 20.16 26.2867 19.96 25.42 19.96C24.82 19.96 24.2933 20.06 23.84 20.26C23.3867 20.46 23.0067 20.6733 22.7 20.9C22.5533 20.8333 22.42 20.7333 22.3 20.6C22.1933 20.4667 22.14 20.3 22.14 20.1Z" fill="white"/>
</g>
<defs>
<clipPath id="clip0_1529_1270">
<rect width="50" height="66.6667" fill="white"/>
</clipPath>
</defs>
</svg>
