<svg width="50" height="67" viewBox="0 0 50 67" fill="none" xmlns="http://www.w3.org/2000/svg">
<g clip-path="url(#clip0_1529_1267)">
<path d="M37.4999 46.6536C39.3202 45.6005 39.7825 42.7422 41.2603 41.2643C42.7382 39.7865 45.5963 39.3268 46.6496 37.5052C47.6887 35.7096 46.6712 33.0078 47.219 30.957C47.7473 28.9714 49.8827 27.1484 49.8827 25C49.8827 22.8516 47.634 21.026 47.1041 19.0456C46.5563 16.9948 47.5744 14.293 46.5357 12.4974C45.4828 10.6771 42.6256 10.2161 41.1477 8.73828C39.6698 7.26042 39.2089 4.40234 37.3886 3.34896C35.593 2.31003 32.8912 3.32764 30.8404 2.7793C28.9713 2.2487 27.1483 0 24.9999 0C22.8515 0 21.0285 2.2487 19.0494 2.77865C16.9921 3.32552 14.2968 2.30859 12.4973 3.34635C10.677 4.39974 10.216 7.25781 8.73818 8.73438C7.26162 10.2122 4.40224 10.6732 3.34885 12.4935C2.30979 14.2839 3.32802 16.9922 2.77984 19.0365C2.24859 21.0286 0 22.8516 0 25C0 27.1484 2.2487 28.974 2.77865 30.9544C3.32643 33.0052 2.30794 35.707 3.34649 37.5026C4.40094 39.3229 7.25771 39.7786 8.73427 41.263C10.2121 42.7409 10.6731 45.599 12.4947 46.6536C14.2903 47.6926 16.9908 46.6742 19.0416 47.2225C21.0285 47.7474 22.8515 50 24.9999 50C27.1483 50 28.9739 47.7513 30.9556 47.2214C33.0077 46.6797 35.703 47.6953 37.4999 46.6536ZM14.5832 25C14.5832 19.2357 19.246 14.5833 24.9999 14.5833C30.7538 14.5833 35.4166 19.2357 35.4166 25C35.4166 30.7513 30.7538 35.4167 24.9999 35.4167C19.246 35.4167 14.5832 30.7552 14.5832 25ZM0.223724 56.4062C-0.199453 57.4724 -0.00817714 58.6823 0.728281 59.5638C1.46474 60.4427 2.62021 60.8526 3.7387 60.6247L9.62281 59.4483L12.4132 64.9522C12.9504 66.0156 14.0103 66.6667 15.1952 66.6667C15.24 66.6667 15.2817 66.6651 15.3265 66.6631C16.5634 66.6143 17.6246 65.8712 18.0921 64.7256L22.4645 54.0381C15.471 53.4341 9.18323 50.3767 4.46969 45.7113L0.223724 56.4062ZM45.5207 45.7161C40.8137 50.3815 34.5246 53.4388 27.5259 54.043L31.8983 64.7305C32.3663 65.8759 33.427 66.6185 34.664 66.668C34.7134 66.5495 34.6483 66.6667 34.8046 66.6667C35.9887 66.6667 37.0481 66.0191 37.5845 64.9557L40.3749 59.4505L46.259 60.6269C47.378 60.8548 48.5338 60.4449 49.2694 59.566C50.0059 58.685 50.1972 57.4749 49.774 56.4085L45.5207 45.7161Z" fill="white"/>
<path d="M21.9 21.6C21.7267 21.5333 21.58 21.4333 21.46 21.3C21.3533 21.1667 21.3 21 21.3 20.8C21.3 20.5867 21.3533 20.4133 21.46 20.28C21.5667 20.1467 21.7533 20.0267 22.02 19.92L24.82 18.7H25.2C25.4667 18.7 25.68 18.78 25.84 18.94C26 19.1 26.08 19.3133 26.08 19.58V31.02C26 31.0467 25.8933 31.0733 25.76 31.1C25.6267 31.14 25.48 31.16 25.32 31.16C24.7467 31.16 24.46 30.9133 24.46 30.42V20.4L21.9 21.6Z" fill="white"/>
</g>
<defs>
<clipPath id="clip0_1529_1267">
<rect width="50" height="66.6667" fill="white"/>
</clipPath>
</defs>
</svg>
