<svg width="25" height="25" viewBox="0 0 25 25" fill="none" xmlns="http://www.w3.org/2000/svg">
<path d="M10.002 15.0664C10.6855 15.0664 11.2227 14.5293 11.2227 13.8457C11.2227 13.2109 10.6855 12.625 10.002 12.625C9.31836 12.625 8.78125 13.2109 8.78125 13.8457C8.78125 14.5293 9.31836 15.0664 10.002 15.0664ZM24.7969 12.625C24.7969 5.93555 19.377 0.515625 12.6875 0.515625C5.99805 0.515625 0.578125 5.93555 0.578125 12.625C0.578125 19.3145 5.99805 24.7344 12.6875 24.7344C19.377 24.7344 24.7969 19.3145 24.7969 12.625ZM18.3027 10.623C20.0117 10.623 20.5488 12.918 19.0352 13.6992C19.084 13.9434 19.1328 14.1875 19.1328 14.4805C19.1328 17.0195 16.252 19.1191 12.6875 19.1191C9.12305 19.1191 6.24219 17.0195 6.24219 14.4805C6.24219 14.1875 6.24219 13.9434 6.29102 13.6992C4.77734 12.918 5.31445 10.623 7.02344 10.623C7.46289 10.623 7.90234 10.8184 8.19531 11.1113C9.26953 10.3789 10.7344 9.89062 12.3457 9.8418L13.3223 5.59375C13.3223 5.44727 13.4688 5.34961 13.6152 5.39844L16.6426 6.0332C16.8379 5.64258 17.2285 5.39844 17.7168 5.39844C18.4004 5.39844 18.9375 5.93555 18.9375 6.61914C18.9375 7.25391 18.4004 7.79102 17.7168 7.79102C17.0332 7.79102 16.4961 7.25391 16.4961 6.61914L13.8105 5.98438L12.9316 9.8418C14.5918 9.89062 16.0566 10.3789 17.1309 11.1113C17.4727 10.8184 17.8633 10.623 18.3027 10.623ZM14.9336 16.2871C14.0547 17.2148 11.2227 17.166 10.3926 16.2871C10.2949 16.1895 10.0996 16.1895 9.95312 16.2871C9.85547 16.4336 9.85547 16.6289 9.95312 16.7266C11.0762 17.8496 14.25 17.8496 15.373 16.7266C15.4707 16.6289 15.4707 16.4336 15.373 16.2871C15.2266 16.1895 15.0801 16.1895 14.9336 16.2871ZM15.3242 12.625C14.6406 12.625 14.1035 13.2109 14.1035 13.8457C14.1035 14.5293 14.6895 15.0664 15.3242 15.0664C16.0078 15.0664 16.5449 14.5293 16.5449 13.8457C16.5449 13.2109 16.0078 12.625 15.3242 12.625Z" fill="white"/>
</svg>
