<svg width="26" height="21" viewBox="0 0 26 21" fill="none" xmlns="http://www.w3.org/2000/svg">
<path d="M22.5996 5.54688C23.5762 4.81445 24.4551 3.93555 25.1387 2.91016C24.2598 3.30078 23.2344 3.59375 22.209 3.69141C23.2832 3.05664 24.0645 2.08008 24.4551 0.859375C23.4785 1.44531 22.3555 1.88477 21.2324 2.12891C20.2559 1.10352 18.9375 0.517578 17.4727 0.517578C14.6406 0.517578 12.3457 2.8125 12.3457 5.64453C12.3457 6.03516 12.3945 6.42578 12.4922 6.81641C8.24414 6.57227 4.43555 4.52148 1.89648 1.44531C1.45703 2.17773 1.21289 3.05664 1.21289 4.0332C1.21289 5.79102 2.0918 7.35352 3.50781 8.28125C2.67773 8.23242 1.84766 8.03711 1.16406 7.64648V7.69531C1.16406 10.1855 2.92188 12.2363 5.26562 12.7246C4.875 12.8223 4.38672 12.9199 3.94727 12.9199C3.60547 12.9199 3.3125 12.8711 2.9707 12.8223C3.60547 14.873 5.50977 16.3379 7.75586 16.3867C5.99805 17.7539 3.80078 18.584 1.4082 18.584C0.96875 18.584 0.578125 18.5352 0.1875 18.4863C2.43359 19.9512 5.11914 20.7812 8.04883 20.7812C17.4727 20.7812 22.5996 13.0176 22.5996 6.23047C22.5996 5.98633 22.5996 5.79102 22.5996 5.54688Z" fill="white"/>
</svg>
