<svg width="28" height="19" viewBox="0 0 28 19" fill="none" xmlns="http://www.w3.org/2000/svg">
<path d="M26.9316 3.22852C26.6387 2.05664 25.7109 1.12891 24.5879 0.835938C22.4883 0.25 14.1875 0.25 14.1875 0.25C14.1875 0.25 5.83789 0.25 3.73828 0.835938C2.61523 1.12891 1.6875 2.05664 1.39453 3.22852C0.808594 5.2793 0.808594 9.67383 0.808594 9.67383C0.808594 9.67383 0.808594 14.0195 1.39453 16.1191C1.6875 17.291 2.61523 18.1699 3.73828 18.4629C5.83789 19 14.1875 19 14.1875 19C14.1875 19 22.4883 19 24.5879 18.4629C25.7109 18.1699 26.6387 17.291 26.9316 16.1191C27.5176 14.0195 27.5176 9.67383 27.5176 9.67383C27.5176 9.67383 27.5176 5.2793 26.9316 3.22852ZM11.4531 13.6289V5.71875L18.3867 9.67383L11.4531 13.6289Z" fill="white"/>
</svg>
