<svg width="25" height="25" viewBox="0 0 25 25" fill="none" xmlns="http://www.w3.org/2000/svg">
<path d="M8.63477 19.5586C8.63477 19.4609 8.53711 19.3633 8.39062 19.3633C8.24414 19.3633 8.14648 19.4609 8.14648 19.5586C8.14648 19.6562 8.24414 19.7539 8.39062 19.7051C8.53711 19.7051 8.63477 19.6562 8.63477 19.5586ZM7.12109 19.3145C7.12109 19.4121 7.21875 19.5586 7.36523 19.5586C7.46289 19.6074 7.60938 19.5586 7.6582 19.4609C7.6582 19.3633 7.60938 19.2656 7.46289 19.2168C7.31641 19.168 7.16992 19.2168 7.12109 19.3145ZM9.31836 19.2656C9.17188 19.2656 9.07422 19.3633 9.07422 19.5098C9.07422 19.6074 9.2207 19.6562 9.36719 19.6074C9.51367 19.5586 9.61133 19.5098 9.5625 19.4121C9.5625 19.3145 9.41602 19.2168 9.31836 19.2656ZM12.4922 0.515625C5.75391 0.515625 0.578125 5.69141 0.578125 12.4297C0.578125 17.8496 3.94727 22.4883 8.83008 24.1484C9.46484 24.2461 9.66016 23.8555 9.66016 23.5625C9.66016 23.2207 9.66016 21.5605 9.66016 20.5352C9.66016 20.5352 6.24219 21.2676 5.50977 19.0703C5.50977 19.0703 4.97266 17.6543 4.19141 17.3125C4.19141 17.3125 3.06836 16.5312 4.24023 16.5312C4.24023 16.5312 5.46094 16.6289 6.14453 17.8008C7.21875 19.7051 8.97656 19.168 9.70898 18.8262C9.80664 18.0449 10.0996 17.5078 10.4902 17.166C7.75586 16.873 4.97266 16.4824 4.97266 11.7949C4.97266 10.4277 5.36328 9.79297 6.14453 8.91406C5.99805 8.57227 5.60742 7.30273 6.29102 5.59375C7.26758 5.30078 9.66016 6.91211 9.66016 6.91211C10.6367 6.61914 11.6621 6.52148 12.6875 6.52148C13.7617 6.52148 14.7871 6.61914 15.7637 6.91211C15.7637 6.91211 18.1074 5.25195 19.1328 5.59375C19.8164 7.30273 19.377 8.57227 19.2793 8.91406C20.0605 9.79297 20.5488 10.4277 20.5488 11.7949C20.5488 16.4824 17.668 16.873 14.9336 17.166C15.373 17.5566 15.7637 18.2891 15.7637 19.4609C15.7637 21.0723 15.7148 23.123 15.7148 23.5137C15.7148 23.8555 15.959 24.2461 16.5938 24.0996C21.4766 22.4883 24.7969 17.8496 24.7969 12.4297C24.7969 5.69141 19.2793 0.515625 12.4922 0.515625ZM5.31445 17.3613C5.2168 17.4102 5.26562 17.5566 5.31445 17.6543C5.41211 17.7031 5.50977 17.752 5.60742 17.7031C5.65625 17.6543 5.65625 17.5078 5.55859 17.4102C5.46094 17.3613 5.36328 17.3125 5.31445 17.3613ZM4.77734 16.9707C4.72852 17.0684 4.77734 17.1172 4.875 17.166C4.97266 17.2148 5.07031 17.2148 5.11914 17.1172C5.11914 17.0684 5.07031 17.0195 4.97266 16.9707C4.875 16.9219 4.82617 16.9219 4.77734 16.9707ZM6.33984 18.7285C6.29102 18.7773 6.29102 18.9238 6.4375 19.0215C6.53516 19.1191 6.68164 19.168 6.73047 19.0703C6.7793 19.0215 6.7793 18.875 6.68164 18.7773C6.58398 18.6797 6.4375 18.6309 6.33984 18.7285ZM5.80273 17.9961C5.70508 18.0449 5.70508 18.1914 5.80273 18.2891C5.90039 18.3867 5.99805 18.4355 6.0957 18.3867C6.14453 18.3379 6.14453 18.1914 6.0957 18.0938C5.99805 17.9961 5.90039 17.9473 5.80273 17.9961Z" fill="white"/>
</svg>
