<svg width="23" height="23" viewBox="0 0 23 23" fill="none" xmlns="http://www.w3.org/2000/svg">
<path d="M0.25 0.6875V22.5625H22.125V0.6875H0.25ZM18.4141 5.91211L17.2422 7.03516C17.1445 7.08398 17.0957 7.23047 17.0957 7.32812V15.6289C17.0957 15.7266 17.1445 15.873 17.2422 15.9219L18.3652 17.0449V17.2891H12.6035V17.0449L13.8242 15.9219C13.9219 15.7754 13.9219 15.7754 13.9219 15.5801V8.89062L10.6016 17.2891H10.1621L6.35352 8.89062V14.5059C6.30469 14.75 6.40234 14.9941 6.54883 15.1406L8.11133 17.0449V17.2891H3.7168V17.0449L5.23047 15.1406C5.42578 14.9941 5.47461 14.75 5.42578 14.5059V8.01172C5.47461 7.86523 5.37695 7.66992 5.2793 7.52344L3.91211 5.91211V5.61914H8.16016L11.4316 12.8457L14.3613 5.66797H18.4141V5.91211Z" fill="white"/>
</svg>
