<svg width="25" height="25" viewBox="0 0 25 25" fill="none" xmlns="http://www.w3.org/2000/svg">
<path d="M12.1875 0.515625C5.49805 0.515625 0.078125 5.93555 0.078125 12.625C0.078125 19.3145 5.49805 24.7344 12.1875 24.7344C18.877 24.7344 24.2969 19.3145 24.2969 12.625C24.2969 5.93555 18.877 0.515625 12.1875 0.515625ZM18.0957 8.81641L16.1426 18.1914C15.9961 18.875 15.6055 19.0215 15.0195 18.7285L11.9922 16.4824L10.5273 17.8984C10.3809 18.0449 10.2344 18.1914 9.94141 18.1914L10.1367 15.1152L15.752 10.0371C15.9961 9.8418 15.7031 9.69531 15.3613 9.89062L8.42773 14.2852L5.44922 13.3574C4.81445 13.1621 4.81445 12.6738 5.5957 12.3809L17.2656 7.88867C17.8027 7.69336 18.291 8.03516 18.0957 8.81641Z" fill="white"/>
</svg>

