<?xml version="1.0" encoding="UTF-8"?>
<!DOCTYPE svg PUBLIC "-//W3C//DTD SVG 1.1//EN" "http://www.w3.org/Graphics/SVG/1.1/DTD/svg11.dtd">
<!-- Creator: CorelDRAW 2018 (64-Bit Evaluation Version) -->
<svg xmlns="http://www.w3.org/2000/svg" xml:space="preserve" width="67.7334mm" height="67.7332mm" version="1.1" style="shape-rendering:geometricPrecision; text-rendering:geometricPrecision; image-rendering:optimizeQuality; fill-rule:evenodd; clip-rule:evenodd"
viewBox="0 0 4499.89 4499.88"
 xmlns:xlink="http://www.w3.org/1999/xlink">
 <defs>
  <style type="text/css">
   <![CDATA[
    .fil4 {fill:none}
    .fil1 {fill:#1A1A1A}
    .fil0 {fill:#1A1A1A;fill-rule:nonzero}
    .fil2 {fill:url(#id0)}
    .fil3 {fill:url(#id1)}
   ]]>
  </style>
  <linearGradient id="id0" gradientUnits="userSpaceOnUse" x1="1174.56" y1="3798.9" x2="2160.76" y2="619.68">
   <stop offset="0" style="stop-opacity:1; stop-color:#FE6E98"/>
   <stop offset="1" style="stop-opacity:1; stop-color:#FE8366"/>
  </linearGradient>
  <linearGradient id="id1" gradientUnits="userSpaceOnUse" xlink:href="#id0" x1="3641.4" y1="1219.89" x2="3024.4" y2="3759.87">
  </linearGradient>
 </defs>
 <g id="Layer_x0020_1">
  <metadata id="CorelCorpID_0Corel-Layer"/>
  <g id="_2123737730448">
   <g>
    <g>
     <path class="fil0" d="M1542.92 1994.76l-391.26 0c-70.1,0 -133.89,28.73 -180.17,75.01 -46.29,46.29 -75.02,110.06 -75.02,180.17 0,70.11 28.73,133.89 75.02,180.17 46.28,46.29 110.06,75.01 180.17,75.01l391.26 0 0 134.31 -391.26 0c-107.18,0 -204.57,-43.79 -275.13,-114.36 -70.56,-70.56 -114.36,-167.96 -114.36,-275.14 0,-107.18 43.8,-204.57 114.36,-275.14 70.56,-70.56 167.95,-114.36 275.13,-114.36l391.26 0 0 134.31z"/>
     <path class="fil0" d="M3093.06 1994.76c70.1,0 133.88,28.73 180.17,75.01 46.29,46.29 75.01,110.06 75.01,180.17 0,70.11 -28.73,133.89 -75.01,180.17 -46.29,46.29 -110.06,75.01 -180.17,75.01l0 134.31c107.18,0 204.57,-43.79 275.13,-114.36 70.56,-70.56 114.36,-167.96 114.36,-275.14 0,-107.18 -43.8,-204.57 -114.36,-275.14 -70.56,-70.56 -167.95,-114.36 -275.13,-114.36l0 134.31z"/>
     <path class="fil0" d="M3737.72 1994.76c-70.1,0 -133.89,28.73 -180.17,75.01 -46.29,46.29 -75.01,110.06 -75.01,180.17 0,70.11 28.73,133.89 75.01,180.17 46.29,46.29 110.07,75.01 180.17,75.01l0 134.31c-107.19,0 -204.57,-43.79 -275.14,-114.36 -70.56,-70.56 -114.36,-167.96 -114.36,-275.14 0,-107.18 43.79,-204.57 114.36,-275.14 70.56,-70.56 167.95,-114.36 275.14,-114.36l0 134.31z"/>
     <path class="fil1" d="M2575.29 2639.43l-11.15 0 -122.02 0 -0.87 0c-107.18,0 -204.57,-43.79 -275.13,-114.36 -70.57,-70.56 -114.36,-167.96 -114.36,-275.14 0,-107.18 43.79,-204.57 114.36,-275.14 70.56,-70.56 167.95,-114.36 275.13,-114.36l0.87 0c165.37,0 133.42,0 260.56,0l0.88 0c107.18,0 204.57,43.79 275.13,114.36 70.56,70.56 114.36,167.96 114.36,275.14 0,107.18 -43.8,204.57 -114.36,275.14 -70.56,70.56 -167.95,114.36 -275.13,114.36l-0.88 0 -45.3 0 -82.09 0zm-123.94 -644.88l0 0.21 -9.23 0 -0.87 0c-70.1,0 -133.89,28.73 -180.17,75.01 -46.28,46.29 -75.01,110.06 -75.01,180.17 0,70.11 28.73,133.89 75.01,180.17 46.29,46.29 110.07,75.01 180.17,75.01l0.87 0 116.13 0 12.22 0 84.62 0 47.59 0 0.88 0c70.1,0 133.88,-28.73 180.17,-75.01 46.29,-46.29 75.02,-110.06 75.02,-180.17 0,-70.11 -28.73,-133.89 -75.02,-180.17 -46.29,-46.29 -110.06,-75.01 -180.17,-75.01l-0.88 0c-132.49,0 -78.99,-0.21 -251.33,-0.21z"/>
     <path class="fil0" d="M2056.37 1999.71c-67.59,1.69 -128.92,30.06 -173.79,74.93 -46.29,46.29 -75.02,110.06 -75.02,180.17 0,4.16 0.11,8.3 0.31,12.41l-134.41 0c-0.13,-4.12 -0.21,-8.26 -0.21,-12.41 0,-107.18 43.8,-204.57 114.36,-275.14 69.15,-69.16 164.09,-112.59 268.75,-114.3l0 134.33z"/>
     <polygon class="fil0" points="1807.99,1860.45 1807.99,2639.43 1672.76,2639.43 1672.76,1860.45 "/>
    </g>
    <g>
     <path class="fil2" d="M2262.4 3934.72l-575.44 0 -3.78 0c-463.18,0 -884.04,-189.27 -1188.97,-494.21 -304.94,-304.91 -494.21,-725.79 -494.21,-1188.97 0,-463.19 189.27,-884.08 494.21,-1188.99 304.93,-304.93 725.79,-494.21 1188.97,-494.21l3.78 0 249.43 0 -3.95 -231.37 663.26 526.67 -645.54 512.6 -3.87 -227.48 -259.32 0 -3.78 0c-302.95,0 -578.59,124.15 -778.6,324.16 -200.01,200.02 -324.17,475.64 -324.17,778.6 0,302.98 124.16,578.61 324.17,778.62 200.02,200.02 475.65,324.16 778.6,324.16l3.78 0 554.62 0 -355.06 281.93 375.88 298.47z"/>
     <path class="fil3" d="M2812.94 1148.75l-505.03 0 359.07 -285.11 -371.88 -295.29 517.84 0 3.78 0c463.18,0 884.04,189.27 1188.97,494.21 304.94,304.91 494.21,725.79 494.21,1188.99 0,463.17 -189.27,884.06 -494.21,1188.97 -304.93,304.93 -725.79,494.21 -1188.97,494.21l-3.78 0 -195.77 0 3.89 228.19 -663.25 -526.67 645.54 -512.6 3.93 230.66 205.66 0 3.78 0c302.95,0 578.59,-124.15 778.6,-324.16 200.01,-200.02 324.17,-475.64 324.17,-778.62 0,-302.96 -124.16,-578.59 -324.17,-778.6 -200.02,-200.02 -475.65,-324.16 -778.6,-324.16l-3.78 0z"/>
    </g>
   </g>
   <rect class="fil4" x="0" y="-0" width="4499.89" height="4499.89"/>
  </g>
 </g>
</svg>
