<?xml version="1.0" encoding="UTF-8"?>
<!DOCTYPE svg PUBLIC "-//W3C//DTD SVG 1.1//EN" "http://www.w3.org/Graphics/SVG/1.1/DTD/svg11.dtd">
<!-- Creator: CorelDRAW 2018 (64-Bit Evaluation Version) -->
<svg xmlns="http://www.w3.org/2000/svg" xml:space="preserve" width="254mm" height="100mm" version="1.1" style="shape-rendering:geometricPrecision; text-rendering:geometricPrecision; image-rendering:optimizeQuality; fill-rule:evenodd; clip-rule:evenodd"
viewBox="0 0 25399.98 10000"
 xmlns:xlink="http://www.w3.org/1999/xlink">
 <defs>
  <style type="text/css">
   <![CDATA[
    .fil4 {fill:none}
    .fil1 {fill:#1A1A1A}
    .fil0 {fill:#1A1A1A;fill-rule:nonzero}
    .fil10 {fill:url(#id0)}
    .fil12 {fill:url(#id1)}
    .fil17 {fill:url(#id2)}
    .fil18 {fill:url(#id3)}
    .fil14 {fill:url(#id4)}
    .fil15 {fill:url(#id5)}
    .fil16 {fill:url(#id6)}
    .fil7 {fill:url(#id7)}
    .fil2 {fill:url(#id8)}
    .fil5 {fill:url(#id9)}
    .fil3 {fill:url(#id10)}
    .fil6 {fill:url(#id11)}
    .fil9 {fill:url(#id12)}
    .fil13 {fill:url(#id13)}
    .fil8 {fill:url(#id14)}
    .fil11 {fill:url(#id15)}
   ]]>
  </style>
  <linearGradient id="id0" gradientUnits="userSpaceOnUse" x1="7425.91" y1="4511.61" x2="7133.37" y2="5715.93">
   <stop offset="0" style="stop-opacity:1; stop-color:#FE6E98"/>
   <stop offset="1" style="stop-opacity:1; stop-color:#FE8366"/>
  </linearGradient>
  <linearGradient id="id1" gradientUnits="userSpaceOnUse" xlink:href="#id0" x1="4790.14" y1="4806.2" x2="4674.05" y2="5284.1">
  </linearGradient>
  <linearGradient id="id2" gradientUnits="userSpaceOnUse" xlink:href="#id0" x1="899.68" y1="5093.26" x2="959.06" y2="4901.85">
  </linearGradient>
  <linearGradient id="id3" gradientUnits="userSpaceOnUse" xlink:href="#id0" x1="1048.21" y1="4937.98" x2="1011.06" y2="5090.91">
  </linearGradient>
  <linearGradient id="id4" gradientUnits="userSpaceOnUse" xlink:href="#id0" x1="3276.55" y1="4903.1" x2="3218.5" y2="5142.05">
  </linearGradient>
  <linearGradient id="id5" gradientUnits="userSpaceOnUse" xlink:href="#id0" x1="1936.01" y1="5116.57" x2="2010.23" y2="4877.3">
  </linearGradient>
  <linearGradient id="id6" gradientUnits="userSpaceOnUse" xlink:href="#id0" x1="2121.66" y1="4922.48" x2="2075.22" y2="5113.64">
  </linearGradient>
  <linearGradient id="id7" gradientUnits="userSpaceOnUse" xlink:href="#id0" x1="9464.66" y1="6165.76" x2="10206.88" y2="3773.04">
  </linearGradient>
  <linearGradient id="id8" gradientUnits="userSpaceOnUse" xlink:href="#id0" x1="19565.66" y1="7331.53" x2="21050.1" y2="2546.1">
  </linearGradient>
  <linearGradient id="id9" gradientUnits="userSpaceOnUse" xlink:href="#id0" x1="13846.55" y1="6492.18" x2="14796.59" y2="3429.5">
  </linearGradient>
  <linearGradient id="id10" gradientUnits="userSpaceOnUse" xlink:href="#id0" x1="23278.79" y1="3449.55" x2="22350.07" y2="7272.78">
  </linearGradient>
  <linearGradient id="id11" gradientUnits="userSpaceOnUse" xlink:href="#id0" x1="16222.94" y1="4007.72" x2="15628.57" y2="6454.58">
  </linearGradient>
  <linearGradient id="id12" gradientUnits="userSpaceOnUse" xlink:href="#id0" x1="6256.28" y1="5734.43" x2="6723.88" y2="4227.02">
  </linearGradient>
  <linearGradient id="id13" gradientUnits="userSpaceOnUse" xlink:href="#id0" x1="3044.47" y1="5145.72" x2="3137.25" y2="4846.63">
  </linearGradient>
  <linearGradient id="id14" gradientUnits="userSpaceOnUse" xlink:href="#id0" x1="11321.23" y1="4224.78" x2="10856.87" y2="6136.4">
  </linearGradient>
  <linearGradient id="id15" gradientUnits="userSpaceOnUse" xlink:href="#id0" x1="4326.01" y1="5291.44" x2="4511.56" y2="4693.26">
  </linearGradient>
 </defs>
 <g id="Layer_x0020_1">
  <metadata id="CorelCorpID_0Corel-Layer"/>
  <g id="_2123738322144">
   <g>
    <g>
     <path class="fil0" d="M20120.12 4615.89l-588.93 0c-105.52,0 -201.53,43.24 -271.19,112.91 -69.67,69.67 -112.92,165.67 -112.92,271.2 0,105.53 43.25,201.53 112.92,271.2 69.66,69.67 165.67,112.91 271.19,112.91l588.93 0 0 202.16 -588.93 0c-161.33,0 -307.92,-65.92 -414.13,-172.13 -106.21,-106.21 -172.14,-252.81 -172.14,-414.14 0,-161.33 65.93,-307.93 172.14,-414.14 106.21,-106.21 252.8,-172.13 414.13,-172.13l588.93 0 0 202.16z"/>
     <path class="fil0" d="M22453.42 4615.89c105.52,0 201.52,43.24 271.19,112.91 69.67,69.67 112.91,165.67 112.91,271.2 0,105.53 -43.24,201.53 -112.91,271.2 -69.67,69.67 -165.67,112.91 -271.19,112.91l0 202.16c161.33,0 307.92,-65.92 414.13,-172.13 106.21,-106.21 172.14,-252.81 172.14,-414.14 0,-161.33 -65.93,-307.93 -172.14,-414.14 -106.21,-106.21 -252.8,-172.13 -414.13,-172.13l0 202.16z"/>
     <path class="fil0" d="M23423.78 4615.89c-105.52,0 -201.53,43.24 -271.2,112.91 -69.67,69.67 -112.91,165.67 -112.91,271.2 0,105.53 43.24,201.53 112.91,271.2 69.67,69.67 165.68,112.91 271.2,112.91l0 202.16c-161.34,0 -307.93,-65.92 -414.14,-172.13 -106.21,-106.21 -172.13,-252.81 -172.13,-414.14 0,-161.33 65.92,-307.93 172.13,-414.14 106.21,-106.21 252.8,-172.13 414.14,-172.13l0 202.16z"/>
     <path class="fil1" d="M21674.07 5586.27l-16.78 0 -183.66 0 -1.31 0c-161.33,0 -307.92,-65.92 -414.13,-172.13 -106.22,-106.21 -172.14,-252.81 -172.14,-414.14 0,-161.33 65.92,-307.93 172.14,-414.14 106.21,-106.21 252.8,-172.13 414.13,-172.13l1.31 0c248.92,0 200.83,0 392.2,0l1.32 0c161.33,0 307.92,65.92 414.13,172.13 106.21,106.21 172.14,252.81 172.14,414.14 0,161.33 -65.93,307.93 -172.14,414.14 -106.21,106.21 -252.8,172.13 -414.13,172.13l-1.32 0 -68.19 0 -123.57 0zm-186.55 -970.69l0 0.31 -13.89 0 -1.31 0c-105.52,0 -201.53,43.24 -271.2,112.91 -69.66,69.67 -112.91,165.67 -112.91,271.2 0,105.53 43.25,201.53 112.91,271.2 69.67,69.67 165.68,112.91 271.2,112.91l1.31 0 174.8 0 18.39 0 127.37 0 71.64 0 1.32 0c105.52,0 201.52,-43.24 271.19,-112.91 69.67,-69.67 112.92,-165.67 112.92,-271.2 0,-105.53 -43.25,-201.53 -112.92,-271.2 -69.67,-69.67 -165.67,-112.91 -271.19,-112.91l-1.32 0c-199.42,0 -118.9,-0.31 -378.31,-0.31z"/>
     <path class="fil0" d="M20892.98 4623.35c-101.74,2.54 -194.05,45.24 -261.59,112.79 -69.67,69.67 -112.92,165.67 -112.92,271.2 0,6.26 0.17,12.49 0.47,18.68l-202.32 0c-0.2,-6.2 -0.31,-12.43 -0.31,-18.68 0,-161.33 65.93,-307.93 172.14,-414.14 104.09,-104.1 246.99,-169.48 404.53,-172.04l0 202.19z"/>
     <polygon class="fil0" points="20519.11,4413.73 20519.11,5586.27 20315.55,5586.27 20315.55,4413.73 "/>
    </g>
    <g>
     <path class="fil2" d="M21203.09 7535.96l-866.17 0 -5.69 0c-697.19,0 -1330.68,-284.9 -1789.66,-743.89 -459,-458.96 -743.89,-1092.48 -743.89,-1789.66 0,-697.21 284.89,-1330.73 743.89,-1789.69 458.98,-458.99 1092.47,-743.89 1789.66,-743.89l5.69 0 375.44 0 -5.94 -348.27 998.35 792.75 -971.68 771.57 -5.83 -342.41 -390.34 0 -5.69 0c-456.01,0 -870.9,186.87 -1171.97,487.94 -301.06,301.07 -487.95,715.95 -487.95,1171.97 0,456.05 186.89,870.93 487.95,1172 301.07,301.07 715.96,487.94 1171.97,487.94l5.69 0 834.82 0 -534.44 424.37 565.79 449.27z"/>
     <path class="fil3" d="M22031.78 3342.47l-760.18 0 540.48 -429.16 -559.76 -444.48 779.46 0 5.69 0c697.19,0 1330.68,284.9 1789.66,743.89 459,458.96 743.89,1092.48 743.89,1789.69 0,697.18 -284.89,1330.7 -743.89,1789.66 -458.98,458.99 -1092.47,743.89 -1789.66,743.89l-5.69 0 -294.68 0 5.85 343.48 -998.34 -792.75 971.68 -771.57 5.92 347.2 309.57 0 5.69 0c456.01,0 870.9,-186.87 1171.97,-487.94 301.06,-301.07 487.95,-715.95 487.95,-1172 0,-456.02 -186.89,-870.9 -487.95,-1171.97 -301.07,-301.07 -715.96,-487.94 -1171.97,-487.94l-5.69 0z"/>
    </g>
   </g>
   <rect class="fil4" x="17797.69" y="1613.34" width="6773.33" height="6773.33"/>
  </g>
  <g id="_2123738309824">
   <g>
    <g>
     <path class="fil0" d="M14201.4 4754.17l-376.91 0c-67.53,0 -128.98,27.67 -173.56,72.26 -44.59,44.59 -72.27,106.03 -72.27,173.57 0,67.54 27.68,128.98 72.27,173.57 44.58,44.59 106.03,72.26 173.56,72.26l376.91 0 0 129.38 -376.91 0c-103.25,0 -197.07,-42.19 -265.04,-110.16 -67.98,-67.98 -110.17,-161.8 -110.17,-265.05 0,-103.25 42.19,-197.07 110.17,-265.05 67.97,-67.97 161.79,-110.16 265.04,-110.16l376.91 0 0 129.38z"/>
     <path class="fil0" d="M15694.71 4754.17c67.53,0 128.98,27.67 173.57,72.26 44.58,44.59 72.26,106.03 72.26,173.57 0,67.54 -27.68,128.98 -72.26,173.57 -44.59,44.59 -106.04,72.26 -173.57,72.26l0 129.38c103.25,0 197.07,-42.19 265.05,-110.16 67.97,-67.98 110.16,-161.8 110.16,-265.05 0,-103.25 -42.19,-197.07 -110.16,-265.05 -67.98,-67.97 -161.8,-110.16 -265.05,-110.16l0 129.38z"/>
     <path class="fil0" d="M16315.74 4754.17c-67.53,0 -128.98,27.67 -173.56,72.26 -44.59,44.59 -72.27,106.03 -72.27,173.57 0,67.54 27.68,128.98 72.27,173.57 44.58,44.59 106.03,72.26 173.56,72.26l0 129.38c-103.25,0 -197.07,-42.19 -265.04,-110.16 -67.98,-67.98 -110.17,-161.8 -110.17,-265.05 0,-103.25 42.19,-197.07 110.17,-265.05 67.97,-67.97 161.79,-110.16 265.04,-110.16l0 129.38z"/>
     <path class="fil1" d="M15195.93 5375.22l-10.74 0 -117.54 0 -0.84 0c-103.25,0 -197.07,-42.2 -265.04,-110.17 -67.98,-67.98 -110.17,-161.8 -110.17,-265.05 0,-103.25 42.19,-197.07 110.17,-265.05 67.97,-67.97 161.79,-110.17 265.04,-110.17l0.84 0c159.31,0 128.53,0 251.01,0l0.84 0c103.25,0 197.07,42.2 265.04,110.17 67.98,67.98 110.17,161.8 110.17,265.05 0,103.25 -42.19,197.07 -110.17,265.05 -67.97,67.97 -161.79,110.17 -265.04,110.17l-0.84 0 -43.64 0 -79.09 0zm-119.39 -621.25l0 0.2 -8.89 0 -0.84 0c-67.53,0 -128.98,27.68 -173.57,72.26 -44.58,44.59 -72.26,106.03 -72.26,173.57 0,67.54 27.68,128.98 72.26,173.57 44.59,44.58 106.04,72.26 173.57,72.26l0.84 0 111.87 0 11.77 0 81.52 0 45.85 0 0.84 0c67.53,0 128.98,-27.68 173.57,-72.26 44.58,-44.59 72.26,-106.03 72.26,-173.57 0,-67.54 -27.68,-128.98 -72.26,-173.57 -44.59,-44.58 -106.04,-72.26 -173.57,-72.26l-0.84 0c-127.63,0 -76.1,-0.2 -242.12,-0.2z"/>
     <path class="fil0" d="M14696.03 4758.94c-65.11,1.63 -124.19,28.96 -167.42,72.19 -44.58,44.59 -72.26,106.03 -72.26,173.56 0,4.01 0.1,8 0.3,11.97l-129.49 0c-0.12,-3.98 -0.19,-7.96 -0.19,-11.96 0,-103.26 42.19,-197.08 110.16,-265.05 66.62,-66.62 158.08,-108.47 258.9,-110.11l0 129.4z"/>
     <polygon class="fil0" points="14456.76,4624.79 14456.76,5375.21 14326.48,5375.21 14326.48,4624.79 "/>
    </g>
    <g>
     <path class="fil5" d="M14894.51 6623.01l-554.36 0 -3.64 0c-446.2,0 -851.63,-182.34 -1145.38,-476.08 -293.75,-293.74 -476.08,-699.19 -476.08,-1145.39 0,-446.21 182.33,-851.66 476.08,-1145.4 293.75,-293.75 699.18,-476.09 1145.38,-476.09l3.64 0 240.29 0 -3.8 -222.89 638.94 507.36 -621.88 493.8 -3.73 -219.14 -249.82 0 -3.64 0c-291.84,0 -557.37,119.6 -750.05,312.28 -192.69,192.69 -312.3,458.21 -312.3,750.06 0,291.88 119.61,557.4 312.3,750.08 192.68,192.68 458.21,312.28 750.05,312.28l3.64 0 534.29 0 -342.04 271.6 362.11 287.53z"/>
     <path class="fil6" d="M15424.87 3939.18l-486.52 0 345.9 -274.66 -358.24 -284.47 498.86 0 3.64 0c446.2,0 851.63,182.34 1145.38,476.09 293.75,293.74 476.08,699.19 476.08,1145.4 0,446.2 -182.33,851.65 -476.08,1145.39 -293.75,293.74 -699.18,476.08 -1145.38,476.08l-3.64 0 -188.6 0 3.75 219.83 -638.94 -507.36 621.87 -493.8 3.79 222.2 198.13 0 3.64 0c291.84,0 557.37,-119.6 750.05,-312.28 192.68,-192.68 312.29,-458.2 312.29,-750.08 0,-291.85 -119.61,-557.37 -312.29,-750.06 -192.68,-192.68 -458.21,-312.28 -750.05,-312.28l-3.64 0z"/>
    </g>
   </g>
   <rect class="fil4" x="12715.05" y="2832.54" width="4334.92" height="4334.93"/>
  </g>
  <g id="_2123738303840">
   <g>
    <g>
     <path class="fil0" d="M9741.89 4807.94l-294.46 0c-52.76,0 -100.76,21.62 -135.6,56.46 -34.83,34.83 -56.46,82.84 -56.46,135.6 0,52.76 21.63,100.77 56.46,135.6 34.84,34.83 82.84,56.46 135.6,56.46l294.46 0 0 101.08 -294.46 0c-80.67,0 -153.96,-32.97 -207.07,-86.07 -53.1,-53.11 -86.07,-126.4 -86.07,-207.07 0,-80.67 32.97,-153.97 86.07,-207.07 53.11,-53.11 126.4,-86.07 207.07,-86.07l294.46 0 0 101.08z"/>
     <path class="fil0" d="M10908.54 4807.94c52.76,0 100.77,21.62 135.6,56.46 34.84,34.83 56.46,82.84 56.46,135.6 0,52.76 -21.62,100.77 -56.46,135.6 -34.83,34.83 -82.84,56.46 -135.6,56.46l0 101.08c80.67,0 153.97,-32.97 207.07,-86.07 53.11,-53.11 86.07,-126.4 86.07,-207.07 0,-80.67 -32.96,-153.97 -86.07,-207.07 -53.1,-53.11 -126.4,-86.07 -207.07,-86.07l0 101.08z"/>
     <path class="fil0" d="M11393.73 4807.94c-52.76,0 -100.77,21.62 -135.6,56.46 -34.84,34.83 -56.46,82.84 -56.46,135.6 0,52.76 21.62,100.77 56.46,135.6 34.83,34.83 82.84,56.46 135.6,56.46l0 101.08c-80.67,0 -153.97,-32.97 -207.07,-86.07 -53.11,-53.11 -86.07,-126.4 -86.07,-207.07 0,-80.67 32.96,-153.97 86.07,-207.07 53.1,-53.11 126.4,-86.07 207.07,-86.07l0 101.08z"/>
     <path class="fil1" d="M10518.87 5293.14l-8.39 0 -91.83 0 -0.65 0c-80.67,0 -153.97,-32.97 -207.07,-86.07 -53.11,-53.1 -86.07,-126.4 -86.07,-207.07 0,-80.67 32.96,-153.97 86.07,-207.07 53.1,-53.1 126.4,-86.07 207.07,-86.07l0.65 0c124.46,0 100.42,0 196.1,0l0.66 0c80.67,0 153.96,32.97 207.07,86.07 53.1,53.1 86.07,126.4 86.07,207.07 0,80.67 -32.97,153.97 -86.07,207.07 -53.11,53.1 -126.4,86.07 -207.07,86.07l-0.66 0 -34.09 0 -61.79 0zm-93.27 -485.35l0 0.15 -6.95 0 -0.65 0c-52.77,0 -100.77,21.63 -135.6,56.46 -34.84,34.83 -56.46,82.83 -56.46,135.6 0,52.76 21.62,100.77 56.46,135.6 34.83,34.83 82.83,56.46 135.6,56.46l0.65 0 87.4 0 9.19 0 63.69 0 35.82 0 0.66 0c52.76,0 100.76,-21.63 135.6,-56.46 34.83,-34.83 56.46,-82.84 56.46,-135.6 0,-52.77 -21.63,-100.77 -56.46,-135.6 -34.84,-34.83 -82.84,-56.46 -135.6,-56.46l-0.66 0c-99.71,0 -59.45,-0.15 -189.15,-0.15z"/>
     <path class="fil0" d="M10128.32 4811.68c-50.86,1.26 -97.02,22.61 -130.79,56.39 -34.83,34.83 -56.46,82.84 -56.46,135.6 0,3.13 0.08,6.25 0.23,9.34l-101.16 0c-0.09,-3.1 -0.15,-6.21 -0.15,-9.34 0,-80.67 32.96,-153.97 86.07,-207.07 52.05,-52.05 123.49,-84.74 202.26,-86.02l0 101.1z"/>
     <polygon class="fil0" points="9941.39,4706.86 9941.39,5293.14 9839.61,5293.14 9839.61,4706.86 "/>
    </g>
    <g>
     <path class="fil7" d="M10283.38 6267.99l-433.09 0 -2.84 0c-348.6,0 -665.34,-142.46 -894.83,-371.95 -229.5,-229.48 -371.95,-546.25 -371.95,-894.83 0,-348.61 142.45,-665.37 371.95,-894.85 229.49,-229.5 546.23,-371.95 894.83,-371.95l2.84 0 187.72 0 -2.96 -174.13 499.17 396.37 -485.84 385.79 -2.92 -171.21 -195.17 0 -2.84 0c-228,0 -435.45,93.44 -585.99,243.97 -150.53,150.54 -243.97,357.98 -243.97,585.99 0,228.03 93.44,435.47 243.97,586 150.54,150.54 357.99,243.97 585.99,243.97l2.84 0 417.42 0 -267.23 212.19 282.9 224.64z"/>
     <path class="fil8" d="M10697.73 4171.23l-380.09 0 270.23 -214.58 -279.88 -222.24 389.74 0 2.84 0c348.6,0 665.34,142.45 894.83,371.95 229.5,229.48 371.95,546.24 371.95,894.85 0,348.58 -142.45,665.35 -371.95,894.83 -229.49,229.49 -546.23,371.95 -894.83,371.95l-2.84 0 -147.34 0 2.92 171.73 -499.17 -396.37 485.84 -385.79 2.96 173.6 154.79 0 2.84 0c228,0 435.45,-93.43 585.99,-243.97 150.53,-150.53 243.97,-357.97 243.97,-586 0,-228.01 -93.44,-435.45 -243.97,-585.99 -150.54,-150.53 -357.99,-243.97 -585.99,-243.97l-2.84 0z"/>
    </g>
   </g>
   <rect class="fil4" x="8580.67" y="3306.66" width="3386.67" height="3386.67"/>
  </g>
  <g id="_2123738299616">
   <g>
    <g>
     <path class="fil0" d="M6430.94 4879l-185.51 0c-33.24,0 -63.48,13.63 -85.43,35.57 -21.95,21.95 -35.57,52.19 -35.57,85.43 0,33.24 13.62,63.48 35.57,85.43 21.95,21.94 52.19,35.57 85.43,35.57l185.51 0 0 63.68 -185.51 0c-50.82,0 -97,-20.77 -130.46,-54.23 -33.45,-33.45 -54.22,-79.63 -54.22,-130.45 0,-50.82 20.77,-97 54.22,-130.45 33.46,-33.46 79.64,-54.23 130.46,-54.23l185.51 0 0 63.68z"/>
     <path class="fil0" d="M7165.92 4879c33.24,0 63.49,13.63 85.43,35.57 21.95,21.95 35.57,52.19 35.57,85.43 0,33.24 -13.62,63.48 -35.57,85.43 -21.94,21.94 -52.19,35.57 -85.43,35.57l0 63.68c50.82,0 97,-20.77 130.46,-54.23 33.45,-33.45 54.22,-79.63 54.22,-130.45 0,-50.82 -20.77,-97 -54.22,-130.45 -33.46,-33.46 -79.64,-54.23 -130.46,-54.23l0 63.68z"/>
     <path class="fil0" d="M7471.59 4879c-33.24,0 -63.48,13.63 -85.43,35.57 -21.94,21.95 -35.57,52.19 -35.57,85.43 0,33.24 13.63,63.48 35.57,85.43 21.95,21.94 52.19,35.57 85.43,35.57l0 63.68c-50.82,0 -97,-20.77 -130.45,-54.23 -33.46,-33.45 -54.23,-79.63 -54.23,-130.45 0,-50.82 20.77,-97 54.23,-130.45 33.45,-33.46 79.63,-54.23 130.45,-54.23l0 63.68z"/>
     <path class="fil1" d="M6920.43 5184.68l-5.28 0 -57.86 0 -0.41 0c-50.82,0 -97,-20.77 -130.45,-54.23 -33.46,-33.45 -54.22,-79.63 -54.22,-130.45 0,-50.82 20.76,-97 54.22,-130.45 33.45,-33.46 79.63,-54.23 130.45,-54.23l0.41 0c78.41,0 63.27,0 123.55,0l0.41 0c50.82,0 97,20.77 130.45,54.23 33.46,33.45 54.23,79.63 54.23,130.45 0,50.82 -20.77,97 -54.23,130.45 -33.45,33.46 -79.63,54.23 -130.45,54.23l-0.41 0 -21.48 0 -38.93 0zm-58.76 -305.77l0 0.09 -4.38 0 -0.41 0c-33.24,0 -63.48,13.63 -85.43,35.57 -21.94,21.95 -35.56,52.19 -35.56,85.43 0,33.24 13.62,63.48 35.56,85.43 21.95,21.94 52.19,35.57 85.43,35.57l0.41 0 55.06 0 5.8 0 40.12 0 22.57 0 0.41 0c33.24,0 63.48,-13.63 85.43,-35.57 21.94,-21.95 35.57,-52.19 35.57,-85.43 0,-33.24 -13.63,-63.48 -35.57,-85.43 -21.95,-21.94 -52.19,-35.57 -85.43,-35.57l-0.41 0c-62.82,0 -37.46,-0.09 -119.17,-0.09z"/>
     <path class="fil0" d="M6674.39 4881.36c-32.05,0.79 -61.13,14.25 -82.4,35.52 -21.95,21.95 -35.57,52.19 -35.57,85.43 0,1.97 0.05,3.94 0.15,5.89l-63.73 0c-0.07,-1.96 -0.1,-3.92 -0.1,-5.89 0,-50.82 20.77,-97 54.22,-130.45 32.79,-32.79 77.8,-53.39 127.43,-54.2l0 63.7z"/>
     <polygon class="fil0" points="6556.62,4815.32 6556.62,5184.68 6492.5,5184.68 6492.5,4815.32 "/>
    </g>
    <g>
     <path class="fil9" d="M6772.07 5798.83l-272.84 0 -1.79 0c-219.62,0 -419.17,-89.75 -563.74,-234.33 -144.59,-144.57 -234.33,-344.13 -234.33,-563.74 0,-219.62 89.74,-419.18 234.33,-563.75 144.57,-144.58 344.12,-234.33 563.74,-234.33l1.79 0 118.26 0 -1.87 -109.7 314.48 249.71 -306.08 243.05 -1.83 -107.86 -122.96 0 -1.79 0c-143.64,0 -274.34,58.86 -369.17,153.7 -94.84,94.84 -153.71,225.52 -153.71,369.17 0,143.66 58.87,274.34 153.71,369.18 94.83,94.83 225.53,153.7 369.17,153.7l1.79 0 262.97 0 -168.35 133.68 178.22 141.52z"/>
     <path class="fil10" d="M7033.11 4477.88l-239.46 0 170.25 -135.19 -176.32 -140.01 245.53 0 1.79 0c219.62,0 419.17,89.75 563.74,234.33 144.59,144.57 234.33,344.13 234.33,563.75 0,219.61 -89.74,419.17 -234.33,563.74 -144.57,144.58 -344.12,234.33 -563.74,234.33l-1.79 0 -92.82 0 1.84 108.19 -314.48 -249.71 306.08 -243.05 1.86 109.37 97.52 0 1.79 0c143.64,0 274.34,-58.87 369.17,-153.7 94.84,-94.84 153.71,-225.52 153.71,-369.18 0,-143.65 -58.87,-274.33 -153.71,-369.17 -94.83,-94.84 -225.53,-153.7 -369.17,-153.7l-1.79 0z"/>
    </g>
   </g>
   <rect class="fil4" x="5699.37" y="3933.2" width="2133.6" height="2133.6"/>
  </g>
  <g id="_2123738293120">
   <g>
    <g>
     <path class="fil0" d="M4395.31 4951.99l-73.62 0c-13.19,0 -25.19,5.4 -33.89,14.11 -8.71,8.71 -14.12,20.71 -14.12,33.9 0,13.19 5.41,25.19 14.12,33.9 8.7,8.71 20.7,14.11 33.89,14.11l73.62 0 0 25.27 -73.62 0c-20.16,0 -38.49,-8.24 -51.76,-21.51 -13.28,-13.28 -21.52,-31.6 -21.52,-51.77 0,-20.17 8.24,-38.49 21.52,-51.77 13.27,-13.27 31.6,-21.51 51.76,-21.51l73.62 0 0 25.27z"/>
     <path class="fil0" d="M4686.97 4951.99c13.19,0 25.19,5.4 33.9,14.11 8.71,8.71 14.12,20.71 14.12,33.9 0,13.19 -5.41,25.19 -14.12,33.9 -8.71,8.71 -20.71,14.11 -33.9,14.11l0 25.27c20.17,0 38.49,-8.24 51.77,-21.51 13.28,-13.28 21.52,-31.6 21.52,-51.77 0,-20.17 -8.24,-38.49 -21.52,-51.77 -13.28,-13.27 -31.6,-21.51 -51.77,-21.51l0 25.27z"/>
     <path class="fil0" d="M4808.27 4951.99c-13.19,0 -25.19,5.4 -33.9,14.11 -8.71,8.71 -14.11,20.71 -14.11,33.9 0,13.19 5.4,25.19 14.11,33.9 8.71,8.71 20.71,14.11 33.9,14.11l0 25.27c-20.17,0 -38.49,-8.24 -51.77,-21.51 -13.27,-13.28 -21.51,-31.6 -21.51,-51.77 0,-20.17 8.24,-38.49 21.51,-51.77 13.28,-13.27 31.6,-21.51 51.77,-21.51l0 25.27z"/>
     <path class="fil1" d="M4589.56 5073.28l-2.1 0 -22.96 0 -0.16 0c-20.17,0 -38.49,-8.24 -51.77,-21.51 -13.28,-13.28 -21.52,-31.6 -21.52,-51.77 0,-20.17 8.24,-38.49 21.52,-51.77 13.28,-13.27 31.6,-21.51 51.77,-21.51l0.16 0c31.12,0 25.1,0 49.03,0l0.16 0c20.17,0 38.49,8.24 51.77,21.51 13.27,13.28 21.51,31.6 21.51,51.77 0,20.17 -8.24,38.49 -21.51,51.77 -13.28,13.27 -31.6,21.51 -51.77,21.51l-0.16 0 -8.53 0 -15.44 0zm-23.32 -121.33l0 0.04 -1.74 0 -0.16 0c-13.19,0 -25.2,5.4 -33.9,14.11 -8.71,8.71 -14.12,20.71 -14.12,33.9 0,13.19 5.41,25.19 14.12,33.9 8.7,8.71 20.71,14.11 33.9,14.11l0.16 0 21.85 0 2.3 0 15.92 0 8.96 0 0.16 0c13.19,0 25.19,-5.4 33.9,-14.11 8.71,-8.71 14.11,-20.71 14.11,-33.9 0,-13.19 -5.4,-25.19 -14.11,-33.9 -8.71,-8.71 -20.71,-14.11 -33.9,-14.11l-0.16 0c-24.93,0 -14.87,-0.04 -47.29,-0.04z"/>
     <path class="fil0" d="M4491.92 4952.92c-12.72,0.32 -24.26,5.65 -32.7,14.1 -8.71,8.71 -14.11,20.71 -14.11,33.9 0,0.78 0.02,1.56 0.05,2.33l-25.29 0c-0.02,-0.77 -0.04,-1.55 -0.04,-2.33 0,-20.17 8.25,-38.49 21.52,-51.77 13.01,-13.01 30.88,-21.19 50.57,-21.51l0 25.28z"/>
     <polygon class="fil0" points="4445.18,4926.72 4445.18,5073.28 4419.74,5073.28 4419.74,4926.72 "/>
    </g>
    <g>
     <path class="fil11" d="M4530.68 5317l-108.27 0 -0.71 0c-87.15,0 -166.34,-35.62 -223.71,-92.99 -57.37,-57.37 -92.98,-136.56 -92.98,-223.71 0,-87.15 35.61,-166.34 92.98,-223.71 57.37,-57.37 136.56,-92.99 223.71,-92.99l0.71 0 46.93 0 -0.74 -43.53 124.79 99.09 -121.46 96.45 -0.73 -42.8 -48.79 0 -0.71 0c-57,0 -108.86,23.36 -146.5,60.99 -37.63,37.63 -60.99,89.49 -60.99,146.5 0,57 23.36,108.86 60.99,146.5 37.64,37.63 89.5,60.99 146.5,60.99l0.71 0 104.35 0 -66.8 53.05 70.72 56.16z"/>
     <path class="fil12" d="M4634.27 4792.81l-95.02 0 67.56 -53.65 -69.97 -55.56 97.43 0 0.71 0c87.15,0 166.34,35.62 223.71,92.99 57.37,57.37 92.98,136.56 92.98,223.71 0,87.15 -35.61,166.34 -92.98,223.71 -57.37,57.37 -136.56,92.99 -223.71,92.99l-0.71 0 -36.84 0 0.74 42.93 -124.8 -99.09 121.46 -96.45 0.74 43.4 38.7 0 0.71 0c57,0 108.86,-23.36 146.5,-60.99 37.63,-37.64 60.99,-89.5 60.99,-146.5 0,-57.01 -23.36,-108.87 -60.99,-146.5 -37.64,-37.63 -89.5,-60.99 -146.5,-60.99l-0.71 0z"/>
    </g>
   </g>
   <rect class="fil4" x="4105.01" y="4576.67" width="846.67" height="846.67"/>
  </g>
  <g id="_2123738282016">
   <g>
    <g>
     <path class="fil0" d="M3079.13 4975.99l-36.81 0c-6.6,0 -12.6,2.71 -16.95,7.06 -4.36,4.35 -7.06,10.35 -7.06,16.95 0,6.6 2.7,12.6 7.06,16.95 4.35,4.35 10.35,7.06 16.95,7.06l36.81 0 0 12.63 -36.81 0c-10.09,0 -19.25,-4.12 -25.89,-10.76 -6.63,-6.63 -10.75,-15.8 -10.75,-25.88 0,-10.08 4.12,-19.25 10.75,-25.88 6.64,-6.64 15.8,-10.76 25.89,-10.76l36.81 0 0 12.63z"/>
     <path class="fil0" d="M3224.96 4975.99c6.59,0 12.59,2.71 16.95,7.06 4.35,4.35 7.05,10.35 7.05,16.95 0,6.6 -2.7,12.6 -7.05,16.95 -4.36,4.35 -10.36,7.06 -16.95,7.06l0 12.63c10.08,0 19.24,-4.12 25.88,-10.76 6.64,-6.63 10.76,-15.8 10.76,-25.88 0,-10.08 -4.12,-19.25 -10.76,-25.88 -6.64,-6.64 -15.8,-10.76 -25.88,-10.76l0 12.63z"/>
     <path class="fil0" d="M3285.6 4975.99c-6.59,0 -12.59,2.71 -16.95,7.06 -4.35,4.35 -7.05,10.35 -7.05,16.95 0,6.6 2.7,12.6 7.05,16.95 4.36,4.35 10.36,7.06 16.95,7.06l0 12.63c-10.08,0 -19.24,-4.12 -25.88,-10.76 -6.64,-6.63 -10.76,-15.8 -10.76,-25.88 0,-10.08 4.12,-19.25 10.76,-25.88 6.64,-6.64 15.8,-10.76 25.88,-10.76l0 12.63z"/>
     <path class="fil1" d="M3176.25 5036.64l-1.05 0 -11.48 0 -0.08 0c-10.09,0 -19.25,-4.12 -25.89,-10.76 -6.63,-6.63 -10.75,-15.8 -10.75,-25.88 0,-10.08 4.12,-19.25 10.75,-25.88 6.64,-6.64 15.8,-10.76 25.89,-10.76l0.08 0c15.56,0 12.55,0 24.51,0l0.08 0c10.09,0 19.25,4.12 25.89,10.76 6.64,6.63 10.76,15.8 10.76,25.88 0,10.08 -4.12,19.25 -10.76,25.88 -6.64,6.64 -15.8,10.76 -25.89,10.76l-0.08 0 -4.26 0 -7.72 0zm-11.66 -60.67l0 0.02 -0.87 0 -0.08 0c-6.6,0 -12.6,2.71 -16.95,7.06 -4.36,4.35 -7.06,10.35 -7.06,16.95 0,6.6 2.7,12.6 7.06,16.95 4.35,4.35 10.35,7.06 16.95,7.06l0.08 0 10.92 0 1.15 0 7.97 0 4.47 0 0.08 0c6.6,0 12.6,-2.71 16.95,-7.06 4.36,-4.35 7.06,-10.35 7.06,-16.95 0,-6.6 -2.7,-12.6 -7.06,-16.95 -4.35,-4.35 -10.35,-7.06 -16.95,-7.06l-0.08 0c-12.46,0 -7.43,-0.02 -23.64,-0.02z"/>
     <path class="fil0" d="M3127.43 4976.46c-6.36,0.16 -12.13,2.83 -16.35,7.05 -4.35,4.35 -7.06,10.35 -7.06,16.95 0,0.39 0.01,0.78 0.03,1.17l-12.64 0c-0.02,-0.39 -0.02,-0.78 -0.02,-1.17 0,-10.08 4.12,-19.25 10.76,-25.88 6.5,-6.51 15.43,-10.6 25.28,-10.76l0 12.64z"/>
     <polygon class="fil0" points="3104.06,4963.36 3104.06,5036.64 3091.34,5036.64 3091.34,4963.36 "/>
    </g>
    <g>
     <path class="fil13" d="M3146.81 5158.5l-54.13 0 -0.36 0c-43.57,0 -83.17,-17.81 -111.85,-46.5 -28.69,-28.68 -46.5,-68.28 -46.5,-111.85 0,-43.57 17.81,-83.17 46.5,-111.86 28.68,-28.68 68.28,-46.49 111.85,-46.49l0.36 0 23.46 0 -0.37 -21.77 62.4 49.55 -60.73 48.22 -0.37 -21.4 -24.39 0 -0.36 0c-28.5,0 -54.43,11.68 -73.25,30.5 -18.81,18.82 -30.5,44.75 -30.5,73.25 0,28.5 11.69,54.43 30.5,73.25 18.82,18.82 44.75,30.5 73.25,30.5l0.36 0 52.17 0 -33.4 26.52 35.36 28.08z"/>
     <path class="fil14" d="M3198.6 4896.4l-47.51 0 33.78 -26.82 -34.98 -27.78 48.71 0 0.36 0c43.57,0 83.17,17.81 111.85,46.49 28.69,28.69 46.5,68.29 46.5,111.86 0,43.57 -17.81,83.17 -46.5,111.85 -28.68,28.69 -68.28,46.5 -111.85,46.5l-0.36 0 -18.41 0 0.36 21.47 -62.39 -49.55 60.73 -48.22 0.37 21.7 19.34 0 0.36 0c28.5,0 54.43,-11.68 73.25,-30.5 18.81,-18.82 30.5,-44.75 30.5,-73.25 0,-28.5 -11.69,-54.43 -30.5,-73.25 -18.82,-18.82 -44.75,-30.5 -73.25,-30.5l-0.36 0z"/>
    </g>
   </g>
   <rect class="fil4" x="2933.97" y="4788.33" width="423.33" height="423.33"/>
  </g>
  <g id="_2123738333088">
   <g>
    <g>
     <path class="fil0" d="M1963.73 4980.79l-29.45 0c-5.27,0 -10.07,2.17 -13.56,5.65 -3.48,3.48 -5.64,8.28 -5.64,13.56 0,5.28 2.16,10.08 5.64,13.56 3.49,3.48 8.29,5.65 13.56,5.65l29.45 0 0 10.1 -29.45 0c-8.06,0 -15.39,-3.29 -20.7,-8.6 -5.31,-5.31 -8.61,-12.64 -8.61,-20.71 0,-8.07 3.3,-15.4 8.61,-20.71 5.31,-5.31 12.64,-8.6 20.7,-8.6l29.45 0 0 10.1z"/>
     <path class="fil0" d="M2080.39 4980.79c5.28,0 10.08,2.17 13.56,5.65 3.49,3.48 5.65,8.28 5.65,13.56 0,5.28 -2.16,10.08 -5.65,13.56 -3.48,3.48 -8.28,5.65 -13.56,5.65l0 10.1c8.07,0 15.4,-3.29 20.71,-8.6 5.31,-5.31 8.61,-12.64 8.61,-20.71 0,-8.07 -3.3,-15.4 -8.61,-20.71 -5.31,-5.31 -12.64,-8.6 -20.71,-8.6l0 10.1z"/>
     <path class="fil0" d="M2128.91 4980.79c-5.28,0 -10.08,2.17 -13.56,5.65 -3.48,3.48 -5.64,8.28 -5.64,13.56 0,5.28 2.16,10.08 5.64,13.56 3.48,3.48 8.28,5.65 13.56,5.65l0 10.1c-8.07,0 -15.4,-3.29 -20.71,-8.6 -5.31,-5.31 -8.6,-12.64 -8.6,-20.71 0,-8.07 3.29,-15.4 8.6,-20.71 5.31,-5.31 12.64,-8.6 20.71,-8.6l0 10.1z"/>
     <path class="fil1" d="M2041.43 5029.31l-0.84 0 -9.19 0 -0.06 0c-8.07,0 -15.4,-3.29 -20.71,-8.6 -5.31,-5.31 -8.61,-12.64 -8.61,-20.71 0,-8.07 3.3,-15.4 8.61,-20.71 5.31,-5.31 12.64,-8.6 20.71,-8.6l0.06 0c12.45,0 10.05,0 19.61,0l0.07 0c8.07,0 15.4,3.29 20.71,8.6 5.31,5.31 8.6,12.64 8.6,20.71 0,8.07 -3.29,15.4 -8.6,20.71 -5.31,5.31 -12.64,8.6 -20.71,8.6l-0.07 0 -3.41 0 -6.17 0zm-9.33 -48.53l0 0.01 -0.7 0 -0.06 0c-5.28,0 -10.08,2.17 -13.56,5.65 -3.48,3.48 -5.65,8.28 -5.65,13.56 0,5.28 2.17,10.08 5.65,13.56 3.48,3.48 8.28,5.65 13.56,5.65l0.06 0 8.74 0 0.92 0 6.37 0 3.58 0 0.07 0c5.28,0 10.08,-2.17 13.56,-5.65 3.48,-3.48 5.65,-8.28 5.65,-13.56 0,-5.28 -2.17,-10.08 -5.65,-13.56 -3.48,-3.48 -8.28,-5.65 -13.56,-5.65l-0.07 0c-9.97,0 -5.94,-0.01 -18.91,-0.01z"/>
     <path class="fil0" d="M2002.37 4981.17c-5.09,0.12 -9.7,2.26 -13.08,5.64 -3.48,3.48 -5.64,8.28 -5.64,13.56 0,0.31 0,0.62 0.02,0.93l-10.12 0c-0.01,-0.31 -0.01,-0.62 -0.01,-0.93 0,-8.07 3.29,-15.4 8.61,-20.71 5.2,-5.2 12.34,-8.47 20.22,-8.6l0 10.11z"/>
     <polygon class="fil0" points="1983.68,4970.69 1983.68,5029.31 1973.5,5029.31 1973.5,4970.69 "/>
    </g>
    <g>
     <path class="fil15" d="M2017.88 5126.8l-43.31 0 -0.29 0c-34.86,0 -66.53,-14.25 -89.48,-37.2 -22.95,-22.94 -37.19,-54.62 -37.19,-89.48 0,-34.86 14.24,-66.54 37.19,-89.48 22.95,-22.95 54.62,-37.2 89.48,-37.2l0.29 0 18.77 0 -0.3 -17.41 49.92 39.64 -48.58 38.57 -0.29 -17.12 -19.52 0 -0.29 0c-22.8,0 -43.54,9.35 -58.59,24.4 -15.06,15.05 -24.4,35.8 -24.4,58.6 0,22.8 9.34,43.55 24.4,58.6 15.05,15.05 35.79,24.4 58.59,24.4l0.29 0 41.74 0 -26.72 21.21 28.29 22.47z"/>
     <path class="fil16" d="M2059.31 4917.12l-38.01 0 27.03 -21.45 -27.99 -22.23 38.97 0 0.29 0c34.86,0 66.53,14.25 89.48,37.2 22.95,22.94 37.19,54.62 37.19,89.48 0,34.86 -14.24,66.54 -37.19,89.48 -22.95,22.95 -54.62,37.2 -89.48,37.2l-0.29 0 -14.73 0 0.29 17.17 -49.92 -39.64 48.59 -38.57 0.29 17.36 15.48 0 0.29 0c22.8,0 43.54,-9.35 58.59,-24.4 15.06,-15.05 24.4,-35.8 24.4,-58.6 0,-22.8 -9.34,-43.55 -24.4,-58.6 -15.05,-15.05 -35.79,-24.4 -58.59,-24.4l-0.29 0z"/>
    </g>
   </g>
   <rect class="fil4" x="1847.61" y="4830.67" width="338.67" height="338.67"/>
  </g>
  <g id="_2123738324704">
   <g>
    <g>
     <path class="fil0" d="M921.86 4984.64l-23.56 0c-4.22,0 -8.06,1.73 -10.85,4.51 -2.78,2.79 -4.51,6.63 -4.51,10.85 0,4.22 1.73,8.06 4.51,10.85 2.79,2.78 6.63,4.51 10.85,4.51l23.56 0 0 8.09 -23.56 0c-6.45,0 -12.31,-2.64 -16.56,-6.88 -4.25,-4.25 -6.89,-10.12 -6.89,-16.57 0,-6.45 2.64,-12.32 6.89,-16.57 4.25,-4.24 10.11,-6.88 16.56,-6.88l23.56 0 0 8.09z"/>
     <path class="fil0" d="M1015.19 4984.64c4.22,0 8.06,1.73 10.85,4.51 2.79,2.79 4.52,6.63 4.52,10.85 0,4.22 -1.73,8.06 -4.52,10.85 -2.79,2.78 -6.63,4.51 -10.85,4.51l0 8.09c6.46,0 12.32,-2.64 16.57,-6.88 4.25,-4.25 6.88,-10.12 6.88,-16.57 0,-6.45 -2.63,-12.32 -6.88,-16.57 -4.25,-4.24 -10.11,-6.88 -16.57,-6.88l0 8.09z"/>
     <path class="fil0" d="M1054.01 4984.64c-4.22,0 -8.06,1.73 -10.85,4.51 -2.79,2.79 -4.52,6.63 -4.52,10.85 0,4.22 1.73,8.06 4.52,10.85 2.79,2.78 6.63,4.51 10.85,4.51l0 8.09c-6.46,0 -12.32,-2.64 -16.57,-6.88 -4.25,-4.25 -6.88,-10.12 -6.88,-16.57 0,-6.45 2.63,-12.32 6.88,-16.57 4.25,-4.24 10.11,-6.88 16.57,-6.88l0 8.09z"/>
     <path class="fil1" d="M984.02 5023.45l-0.67 0 -7.35 0 -0.05 0c-6.45,0 -12.32,-2.64 -16.57,-6.88 -4.25,-4.25 -6.88,-10.12 -6.88,-16.57 0,-6.45 2.63,-12.32 6.88,-16.57 4.25,-4.24 10.12,-6.88 16.57,-6.88l0.05 0c9.96,0 8.03,0 15.69,0l0.05 0c6.46,0 12.32,2.64 16.57,6.88 4.25,4.25 6.88,10.12 6.88,16.57 0,6.45 -2.63,12.32 -6.88,16.57 -4.25,4.24 -10.11,6.88 -16.57,6.88l-0.05 0 -2.73 0 -4.94 0zm-7.46 -38.83l0 0.02 -0.56 0 -0.05 0c-4.22,0 -8.06,1.73 -10.85,4.51 -2.79,2.79 -4.52,6.63 -4.52,10.85 0,4.22 1.73,8.06 4.52,10.85 2.79,2.78 6.63,4.51 10.85,4.51l0.05 0 6.99 0 0.74 0 5.09 0 2.87 0 0.05 0c4.22,0 8.06,-1.73 10.85,-4.51 2.79,-2.79 4.52,-6.63 4.52,-10.85 0,-4.22 -1.73,-8.06 -4.52,-10.85 -2.79,-2.78 -6.63,-4.51 -10.85,-4.51l-0.05 0c-7.98,0 -4.76,-0.02 -15.13,-0.02z"/>
     <path class="fil0" d="M952.78 4984.93c-4.07,0.11 -7.77,1.81 -10.47,4.52 -2.79,2.78 -4.52,6.62 -4.52,10.84 0,0.25 0.01,0.5 0.02,0.75l-8.09 0c-0.01,-0.25 -0.01,-0.5 -0.01,-0.75 0,-6.45 2.64,-12.31 6.88,-16.56 4.17,-4.17 9.88,-6.78 16.19,-6.88l0 8.08z"/>
     <polygon class="fil0" points="937.82,4976.55 937.82,5023.45 929.68,5023.45 929.68,4976.55 "/>
    </g>
    <g>
     <path class="fil17" d="M965.18 5101.44l-34.65 0 -0.23 0c-27.88,0 -53.22,-11.4 -71.58,-29.76 -18.36,-18.36 -29.76,-43.7 -29.76,-71.58 0,-27.89 11.4,-53.23 29.76,-71.59 18.36,-18.36 43.7,-29.76 71.58,-29.76l0.23 0 15.02 0 -0.24 -13.93 39.94 31.71 -38.87 30.86 -0.23 -13.69 -15.62 0 -0.23 0c-18.24,0 -34.83,7.47 -46.87,19.52 -12.05,12.04 -19.52,28.63 -19.52,46.88 0,18.24 7.47,34.83 19.52,46.88 12.04,12.04 28.63,19.51 46.87,19.51l0.23 0 33.4 0 -21.38 16.98 22.63 17.97z"/>
     <path class="fil18" d="M998.33 4933.7l-30.41 0 21.62 -17.17 -22.39 -17.78 31.18 0 0.23 0c27.88,0 53.22,11.4 71.58,29.76 18.36,18.36 29.76,43.7 29.76,71.59 0,27.88 -11.4,53.22 -29.76,71.58 -18.36,18.36 -43.7,29.76 -71.58,29.76l-0.23 0 -11.79 0 0.23 13.74 -39.93 -31.71 38.87 -30.86 0.23 13.88 12.39 0 0.23 0c18.24,0 34.83,-7.47 46.87,-19.51 12.05,-12.05 19.52,-28.64 19.52,-46.88 0,-18.25 -7.47,-34.84 -19.52,-46.88 -12.04,-12.05 -28.63,-19.52 -46.87,-19.52l-0.23 0z"/>
    </g>
   </g>
   <rect class="fil4" x="828.96" y="4864.53" width="270.94" height="270.93"/>
  </g>
 </g>
</svg>
